<?xml version="1.0" encoding="utf-8" standalone="no"?>
<!DOCTYPE svg PUBLIC "-//W3C//DTD SVG 1.1//EN"
  "http://www.w3.org/Graphics/SVG/1.1/DTD/svg11.dtd">
<svg xmlns:xlink="http://www.w3.org/1999/xlink" width="257.71424pt" height="183.303672pt" viewBox="0 0 257.71424 183.303672" xmlns="http://www.w3.org/2000/svg" version="1.1">
 <metadata>
  <rdf:RDF xmlns:dc="http://purl.org/dc/elements/1.1/" xmlns:cc="http://creativecommons.org/ns#" xmlns:rdf="http://www.w3.org/1999/02/22-rdf-syntax-ns#">
   <cc:Work>
    <dc:type rdf:resource="http://purl.org/dc/dcmitype/StillImage"/>
    <dc:date>2026-05-10T16:45:46.988320</dc:date>
    <dc:format>image/svg+xml</dc:format>
    <dc:creator>
     <cc:Agent>
      <dc:title>Matplotlib v3.5.0, https://matplotlib.org/</dc:title>
     </cc:Agent>
    </dc:creator>
   </cc:Work>
  </rdf:RDF>
 </metadata>
 <defs>
  <style type="text/css">*{stroke-linejoin: round; stroke-linecap: butt}</style>
 </defs>
 <g id="figure_1">
  <g id="patch_1">
   <path d="M 0 183.303672 
L 257.71424 183.303672 
L 257.71424 0 
L 0 0 
z
" style="fill: #ffffff"/>
  </g>
  <g id="axes_1">
   <g id="patch_2">
    <path d="M 31.198281 149.618672 
L 240.482361 149.618672 
L 240.482361 19.658672 
L 31.198281 19.658672 
z
" style="fill: #ffffff"/>
   </g>
   <g id="PolyCollection_1">
    <defs>
     <path id="me8a4863beb" d="M 31.198281 -39.592273 
L 31.198281 -65.149537 
L 31.721491 -65.469429 
L 32.244702 -65.777228 
L 32.767912 -66.072609 
L 33.291122 -66.35528 
L 33.814332 -66.62498 
L 34.337542 -66.881479 
L 34.860753 -67.12458 
L 35.383963 -67.354119 
L 35.907173 -67.569966 
L 36.430383 -67.772023 
L 36.953593 -67.960226 
L 37.476804 -68.134541 
L 38.000014 -68.294971 
L 38.523224 -68.441547 
L 39.046434 -68.574334 
L 39.569644 -68.693425 
L 40.092855 -68.798946 
L 40.616065 -68.891049 
L 41.139275 -68.969917 
L 41.662485 -69.035756 
L 42.185695 -69.088799 
L 42.708906 -69.129306 
L 43.232116 -69.157554 
L 43.755326 -69.173848 
L 44.278536 -69.178507 
L 44.801746 -69.171873 
L 45.324957 -69.154301 
L 45.848167 -69.126164 
L 46.371377 -69.087848 
L 46.894587 -69.039751 
L 47.417797 -68.98228 
L 47.941008 -68.915852 
L 48.464218 -68.840892 
L 48.987428 -68.75783 
L 49.510638 -68.667098 
L 50.033848 -68.569134 
L 50.557059 -68.464376 
L 51.080269 -68.35326 
L 51.603479 -68.236222 
L 52.126689 -68.113695 
L 52.649899 -67.986108 
L 53.17311 -67.853882 
L 53.69632 -67.717436 
L 54.21953 -67.577179 
L 54.74274 -67.43351 
L 55.26595 -67.286823 
L 55.789161 -67.137497 
L 56.312371 -66.985904 
L 56.835581 -66.832402 
L 57.358791 -66.67734 
L 57.882001 -66.521051 
L 58.405212 -66.363858 
L 58.928422 -66.206068 
L 59.451632 -66.047978 
L 59.974842 -65.889869 
L 60.498052 -65.732008 
L 61.021263 -65.574651 
L 61.544473 -65.418036 
L 62.067683 -65.262392 
L 62.590893 -65.107931 
L 63.114103 -64.954854 
L 63.637314 -64.803347 
L 64.160524 -64.653585 
L 64.683734 -64.505728 
L 65.206944 -64.359928 
L 65.730154 -64.216322 
L 66.253365 -64.075036 
L 66.776575 -63.936186 
L 67.299785 -63.799879 
L 67.822995 -63.666209 
L 68.346205 -63.535263 
L 68.869416 -63.407117 
L 69.392626 -63.281842 
L 69.915836 -63.159496 
L 70.439046 -63.040135 
L 70.962256 -62.923804 
L 71.485467 -62.810543 
L 72.008677 -62.700386 
L 72.531887 -62.59336 
L 73.055097 -62.489489 
L 73.578307 -62.38879 
L 74.101518 -62.291277 
L 74.624728 -62.196959 
L 75.147938 -62.105841 
L 75.671148 -62.017924 
L 76.194358 -61.933207 
L 76.717569 -61.851685 
L 77.240779 -61.77335 
L 77.763989 -61.698192 
L 78.287199 -61.626196 
L 78.810409 -61.557347 
L 79.33362 -61.491627 
L 79.85683 -61.429014 
L 80.38004 -61.369486 
L 80.90325 -61.313016 
L 81.42646 -61.259576 
L 81.949671 -61.209137 
L 82.472881 -61.161663 
L 82.996091 -61.117121 
L 83.519301 -61.07547 
L 84.042511 -61.036671 
L 84.565722 -61.000678 
L 85.088932 -60.967444 
L 85.612142 -60.93692 
L 86.135352 -60.909052 
L 86.658562 -60.883783 
L 87.181773 -60.861053 
L 87.704983 -60.840799 
L 88.228193 -60.822952 
L 88.751403 -60.807443 
L 89.274613 -60.794196 
L 89.797824 -60.783134 
L 90.321034 -60.774175 
L 90.844244 -60.767232 
L 91.367454 -60.762216 
L 91.890664 -60.759035 
L 92.413875 -60.75759 
L 92.937085 -60.757783 
L 93.460295 -60.759509 
L 93.983505 -60.762661 
L 94.506715 -60.767129 
L 95.029926 -60.772801 
L 95.553136 -60.77956 
L 96.076346 -60.787289 
L 96.599556 -60.795867 
L 97.122766 -60.805171 
L 97.645977 -60.815078 
L 98.169187 -60.825463 
L 98.692397 -60.836199 
L 99.215607 -60.847159 
L 99.738817 -60.858215 
L 100.262028 -60.869241 
L 100.785238 -60.88011 
L 101.308448 -60.890695 
L 101.831658 -60.900871 
L 102.354868 -60.910515 
L 102.878079 -60.919505 
L 103.401289 -60.927722 
L 103.924499 -60.93505 
L 104.447709 -60.941374 
L 104.970919 -60.946583 
L 105.49413 -60.950572 
L 106.01734 -60.953238 
L 106.54055 -60.954481 
L 107.06376 -60.954207 
L 107.58697 -60.952328 
L 108.110181 -60.948758 
L 108.633391 -60.94342 
L 109.156601 -60.936239 
L 109.679811 -60.927146 
L 110.203021 -60.916081 
L 110.726232 -60.902986 
L 111.249442 -60.887811 
L 111.772652 -60.870512 
L 112.295862 -60.85105 
L 112.819072 -60.829392 
L 113.342283 -60.805514 
L 113.865493 -60.779394 
L 114.388703 -60.751019 
L 114.911913 -60.720381 
L 115.435123 -60.687477 
L 115.958334 -60.652312 
L 116.481544 -60.614895 
L 117.004754 -60.575241 
L 117.527964 -60.533371 
L 118.051174 -60.48931 
L 118.574385 -60.44309 
L 119.097595 -60.394746 
L 119.620805 -60.344319 
L 120.144015 -60.291855 
L 120.667225 -60.237404 
L 121.190436 -60.181019 
L 121.713646 -60.122758 
L 122.236856 -60.062685 
L 122.760066 -60.000863 
L 123.283276 -59.937363 
L 123.806487 -59.872256 
L 124.329697 -59.805619 
L 124.852907 -59.73753 
L 125.376117 -59.66807 
L 125.899327 -59.597322 
L 126.422538 -59.525374 
L 126.945748 -59.452313 
L 127.468958 -59.37823 
L 127.992168 -59.303218 
L 128.515378 -59.22737 
L 129.038589 -59.150784 
L 129.561799 -59.073557 
L 130.085009 -58.995787 
L 130.608219 -58.917575 
L 131.131429 -58.839022 
L 131.65464 -58.760231 
L 132.17785 -58.681306 
L 132.70106 -58.602351 
L 133.22427 -58.52347 
L 133.74748 -58.44477 
L 134.270691 -58.366356 
L 134.793901 -58.288336 
L 135.317111 -58.210817 
L 135.840321 -58.133905 
L 136.363531 -58.057708 
L 136.886742 -57.982333 
L 137.409952 -57.907888 
L 137.933162 -57.834479 
L 138.456372 -57.762214 
L 138.979582 -57.691198 
L 139.502793 -57.621538 
L 140.026003 -57.553339 
L 140.549213 -57.486705 
L 141.072423 -57.42174 
L 141.595633 -57.358548 
L 142.118844 -57.297228 
L 142.642054 -57.237883 
L 143.165264 -57.18061 
L 143.688474 -57.125509 
L 144.211684 -57.072674 
L 144.734895 -57.022202 
L 145.258105 -56.974183 
L 145.781315 -56.92871 
L 146.304525 -56.885871 
L 146.827735 -56.845754 
L 147.350946 -56.808442 
L 147.874156 -56.774018 
L 148.397366 -56.742562 
L 148.920576 -56.714152 
L 149.443786 -56.688862 
L 149.966997 -56.666764 
L 150.490207 -56.647928 
L 151.013417 -56.632419 
L 151.536627 -56.620302 
L 152.059837 -56.611638 
L 152.583048 -56.606482 
L 153.106258 -56.604891 
L 153.629468 -56.606914 
L 154.152678 -56.6126 
L 154.675888 -56.621994 
L 155.199099 -56.635136 
L 155.722309 -56.652066 
L 156.245519 -56.672817 
L 156.768729 -56.697421 
L 157.291939 -56.725907 
L 157.81515 -56.758298 
L 158.33836 -56.794618 
L 158.86157 -56.834883 
L 159.38478 -56.87911 
L 159.90799 -56.927311 
L 160.431201 -56.979494 
L 160.954411 -57.035665 
L 161.477621 -57.095829 
L 162.000831 -57.159985 
L 162.524041 -57.228131 
L 163.047252 -57.300263 
L 163.570462 -57.376374 
L 164.093672 -57.456455 
L 164.616882 -57.540495 
L 165.140092 -57.628481 
L 165.663303 -57.7204 
L 166.186513 -57.816236 
L 166.709723 -57.915972 
L 167.232933 -58.019592 
L 167.756143 -58.127078 
L 168.279354 -58.238412 
L 168.802564 -58.353577 
L 169.325774 -58.472557 
L 169.848984 -58.595335 
L 170.372194 -58.721896 
L 170.895405 -58.852229 
L 171.418615 -58.986322 
L 171.941825 -59.124167 
L 172.465035 -59.265758 
L 172.988245 -59.411095 
L 173.511456 -59.560178 
L 174.034666 -59.713014 
L 174.557876 -59.869613 
L 175.081086 -60.029992 
L 175.604296 -60.194172 
L 176.127507 -60.362179 
L 176.650717 -60.534048 
L 177.173927 -60.709819 
L 177.697137 -60.889538 
L 178.220347 -61.073261 
L 178.743558 -61.261049 
L 179.266768 -61.452973 
L 179.789978 -61.64911 
L 180.313188 -61.849546 
L 180.836398 -62.054377 
L 181.359609 -62.263704 
L 181.882819 -62.47764 
L 182.406029 -62.696304 
L 182.929239 -62.919822 
L 183.452449 -63.148332 
L 183.97566 -63.381975 
L 184.49887 -63.620902 
L 185.02208 -63.86527 
L 185.54529 -64.115242 
L 186.0685 -64.370986 
L 186.591711 -64.632675 
L 187.114921 -64.900488 
L 187.638131 -65.174603 
L 188.161341 -65.455203 
L 188.684551 -65.742471 
L 189.207762 -66.036589 
L 189.730972 -66.337737 
L 190.254182 -66.646092 
L 190.777392 -66.961828 
L 191.300602 -67.28511 
L 191.823813 -67.616096 
L 192.347023 -67.954936 
L 192.870233 -68.301765 
L 193.393443 -68.656708 
L 193.916653 -69.019873 
L 194.439864 -69.391351 
L 194.963074 -69.771214 
L 195.486284 -70.159512 
L 196.009494 -70.556273 
L 196.532704 -70.961498 
L 197.055915 -71.375162 
L 197.579125 -71.797211 
L 198.102335 -72.227558 
L 198.625545 -72.666085 
L 199.148755 -73.112637 
L 199.671966 -73.567025 
L 200.195176 -74.02902 
L 200.718386 -74.498353 
L 201.241596 -74.974714 
L 201.764806 -75.457752 
L 202.288017 -75.947071 
L 202.811227 -76.442231 
L 203.334437 -76.942749 
L 203.857647 -77.448092 
L 204.380857 -77.957685 
L 204.904068 -78.470905 
L 205.427278 -78.987083 
L 205.950488 -79.505506 
L 206.473698 -80.025415 
L 206.996908 -80.546006 
L 207.520119 -81.066432 
L 208.043329 -81.585807 
L 208.566539 -82.103202 
L 209.089749 -82.61765 
L 209.612959 -83.12815 
L 210.13617 -83.633666 
L 210.65938 -84.133131 
L 211.18259 -84.62545 
L 211.7058 -85.109503 
L 212.22901 -85.584149 
L 212.752221 -86.048228 
L 213.275431 -86.500566 
L 213.798641 -86.939979 
L 214.321851 -87.365277 
L 214.845061 -87.775267 
L 215.368272 -88.168759 
L 215.891482 -88.544571 
L 216.414692 -88.90153 
L 216.937902 -89.238482 
L 217.461112 -89.554291 
L 217.984323 -89.84785 
L 218.507533 -90.118079 
L 219.030743 -90.363934 
L 219.553953 -90.584412 
L 220.077163 -90.778553 
L 220.600374 -90.945443 
L 221.123584 -91.084225 
L 221.646794 -91.194095 
L 222.170004 -91.274311 
L 222.693214 -91.324197 
L 223.216425 -91.34314 
L 223.739635 -91.330604 
L 224.262845 -91.286121 
L 224.786055 -91.209303 
L 225.309265 -91.099839 
L 225.832476 -90.9575 
L 226.355686 -90.782137 
L 226.878896 -90.573685 
L 227.402106 -90.332166 
L 227.925316 -90.057683 
L 228.448527 -89.750426 
L 228.971737 -89.410669 
L 229.494947 -89.038771 
L 230.018157 -88.635174 
L 230.541367 -88.200401 
L 231.064578 -87.735055 
L 231.587788 -87.239818 
L 232.110998 -86.715447 
L 232.634208 -86.162773 
L 233.157418 -85.582695 
L 233.680629 -84.97618 
L 234.203839 -84.344257 
L 234.727049 -83.688014 
L 235.250259 -83.008596 
L 235.773469 -82.307195 
L 236.29668 -81.585052 
L 236.81989 -80.84345 
L 237.3431 -80.083705 
L 237.86631 -79.307169 
L 238.38952 -78.515218 
L 238.912731 -77.709252 
L 239.435941 -76.890686 
L 239.959151 -76.060947 
L 240.482361 -75.22147 
L 240.482361 -39.592273 
L 240.482361 -39.592273 
L 239.959151 -39.592273 
L 239.435941 -39.592273 
L 238.912731 -39.592273 
L 238.38952 -39.592273 
L 237.86631 -39.592273 
L 237.3431 -39.592273 
L 236.81989 -39.592273 
L 236.29668 -39.592273 
L 235.773469 -39.592273 
L 235.250259 -39.592273 
L 234.727049 -39.592273 
L 234.203839 -39.592273 
L 233.680629 -39.592273 
L 233.157418 -39.592273 
L 232.634208 -39.592273 
L 232.110998 -39.592273 
L 231.587788 -39.592273 
L 231.064578 -39.592273 
L 230.541367 -39.592273 
L 230.018157 -39.592273 
L 229.494947 -39.592273 
L 228.971737 -39.592273 
L 228.448527 -39.592273 
L 227.925316 -39.592273 
L 227.402106 -39.592273 
L 226.878896 -39.592273 
L 226.355686 -39.592273 
L 225.832476 -39.592273 
L 225.309265 -39.592273 
L 224.786055 -39.592273 
L 224.262845 -39.592273 
L 223.739635 -39.592273 
L 223.216425 -39.592273 
L 222.693214 -39.592273 
L 222.170004 -39.592273 
L 221.646794 -39.592273 
L 221.123584 -39.592273 
L 220.600374 -39.592273 
L 220.077163 -39.592273 
L 219.553953 -39.592273 
L 219.030743 -39.592273 
L 218.507533 -39.592273 
L 217.984323 -39.592273 
L 217.461112 -39.592273 
L 216.937902 -39.592273 
L 216.414692 -39.592273 
L 215.891482 -39.592273 
L 215.368272 -39.592273 
L 214.845061 -39.592273 
L 214.321851 -39.592273 
L 213.798641 -39.592273 
L 213.275431 -39.592273 
L 212.752221 -39.592273 
L 212.22901 -39.592273 
L 211.7058 -39.592273 
L 211.18259 -39.592273 
L 210.65938 -39.592273 
L 210.13617 -39.592273 
L 209.612959 -39.592273 
L 209.089749 -39.592273 
L 208.566539 -39.592273 
L 208.043329 -39.592273 
L 207.520119 -39.592273 
L 206.996908 -39.592273 
L 206.473698 -39.592273 
L 205.950488 -39.592273 
L 205.427278 -39.592273 
L 204.904068 -39.592273 
L 204.380857 -39.592273 
L 203.857647 -39.592273 
L 203.334437 -39.592273 
L 202.811227 -39.592273 
L 202.288017 -39.592273 
L 201.764806 -39.592273 
L 201.241596 -39.592273 
L 200.718386 -39.592273 
L 200.195176 -39.592273 
L 199.671966 -39.592273 
L 199.148755 -39.592273 
L 198.625545 -39.592273 
L 198.102335 -39.592273 
L 197.579125 -39.592273 
L 197.055915 -39.592273 
L 196.532704 -39.592273 
L 196.009494 -39.592273 
L 195.486284 -39.592273 
L 194.963074 -39.592273 
L 194.439864 -39.592273 
L 193.916653 -39.592273 
L 193.393443 -39.592273 
L 192.870233 -39.592273 
L 192.347023 -39.592273 
L 191.823813 -39.592273 
L 191.300602 -39.592273 
L 190.777392 -39.592273 
L 190.254182 -39.592273 
L 189.730972 -39.592273 
L 189.207762 -39.592273 
L 188.684551 -39.592273 
L 188.161341 -39.592273 
L 187.638131 -39.592273 
L 187.114921 -39.592273 
L 186.591711 -39.592273 
L 186.0685 -39.592273 
L 185.54529 -39.592273 
L 185.02208 -39.592273 
L 184.49887 -39.592273 
L 183.97566 -39.592273 
L 183.452449 -39.592273 
L 182.929239 -39.592273 
L 182.406029 -39.592273 
L 181.882819 -39.592273 
L 181.359609 -39.592273 
L 180.836398 -39.592273 
L 180.313188 -39.592273 
L 179.789978 -39.592273 
L 179.266768 -39.592273 
L 178.743558 -39.592273 
L 178.220347 -39.592273 
L 177.697137 -39.592273 
L 177.173927 -39.592273 
L 176.650717 -39.592273 
L 176.127507 -39.592273 
L 175.604296 -39.592273 
L 175.081086 -39.592273 
L 174.557876 -39.592273 
L 174.034666 -39.592273 
L 173.511456 -39.592273 
L 172.988245 -39.592273 
L 172.465035 -39.592273 
L 171.941825 -39.592273 
L 171.418615 -39.592273 
L 170.895405 -39.592273 
L 170.372194 -39.592273 
L 169.848984 -39.592273 
L 169.325774 -39.592273 
L 168.802564 -39.592273 
L 168.279354 -39.592273 
L 167.756143 -39.592273 
L 167.232933 -39.592273 
L 166.709723 -39.592273 
L 166.186513 -39.592273 
L 165.663303 -39.592273 
L 165.140092 -39.592273 
L 164.616882 -39.592273 
L 164.093672 -39.592273 
L 163.570462 -39.592273 
L 163.047252 -39.592273 
L 162.524041 -39.592273 
L 162.000831 -39.592273 
L 161.477621 -39.592273 
L 160.954411 -39.592273 
L 160.431201 -39.592273 
L 159.90799 -39.592273 
L 159.38478 -39.592273 
L 158.86157 -39.592273 
L 158.33836 -39.592273 
L 157.81515 -39.592273 
L 157.291939 -39.592273 
L 156.768729 -39.592273 
L 156.245519 -39.592273 
L 155.722309 -39.592273 
L 155.199099 -39.592273 
L 154.675888 -39.592273 
L 154.152678 -39.592273 
L 153.629468 -39.592273 
L 153.106258 -39.592273 
L 152.583048 -39.592273 
L 152.059837 -39.592273 
L 151.536627 -39.592273 
L 151.013417 -39.592273 
L 150.490207 -39.592273 
L 149.966997 -39.592273 
L 149.443786 -39.592273 
L 148.920576 -39.592273 
L 148.397366 -39.592273 
L 147.874156 -39.592273 
L 147.350946 -39.592273 
L 146.827735 -39.592273 
L 146.304525 -39.592273 
L 145.781315 -39.592273 
L 145.258105 -39.592273 
L 144.734895 -39.592273 
L 144.211684 -39.592273 
L 143.688474 -39.592273 
L 143.165264 -39.592273 
L 142.642054 -39.592273 
L 142.118844 -39.592273 
L 141.595633 -39.592273 
L 141.072423 -39.592273 
L 140.549213 -39.592273 
L 140.026003 -39.592273 
L 139.502793 -39.592273 
L 138.979582 -39.592273 
L 138.456372 -39.592273 
L 137.933162 -39.592273 
L 137.409952 -39.592273 
L 136.886742 -39.592273 
L 136.363531 -39.592273 
L 135.840321 -39.592273 
L 135.317111 -39.592273 
L 134.793901 -39.592273 
L 134.270691 -39.592273 
L 133.74748 -39.592273 
L 133.22427 -39.592273 
L 132.70106 -39.592273 
L 132.17785 -39.592273 
L 131.65464 -39.592273 
L 131.131429 -39.592273 
L 130.608219 -39.592273 
L 130.085009 -39.592273 
L 129.561799 -39.592273 
L 129.038589 -39.592273 
L 128.515378 -39.592273 
L 127.992168 -39.592273 
L 127.468958 -39.592273 
L 126.945748 -39.592273 
L 126.422538 -39.592273 
L 125.899327 -39.592273 
L 125.376117 -39.592273 
L 124.852907 -39.592273 
L 124.329697 -39.592273 
L 123.806487 -39.592273 
L 123.283276 -39.592273 
L 122.760066 -39.592273 
L 122.236856 -39.592273 
L 121.713646 -39.592273 
L 121.190436 -39.592273 
L 120.667225 -39.592273 
L 120.144015 -39.592273 
L 119.620805 -39.592273 
L 119.097595 -39.592273 
L 118.574385 -39.592273 
L 118.051174 -39.592273 
L 117.527964 -39.592273 
L 117.004754 -39.592273 
L 116.481544 -39.592273 
L 115.958334 -39.592273 
L 115.435123 -39.592273 
L 114.911913 -39.592273 
L 114.388703 -39.592273 
L 113.865493 -39.592273 
L 113.342283 -39.592273 
L 112.819072 -39.592273 
L 112.295862 -39.592273 
L 111.772652 -39.592273 
L 111.249442 -39.592273 
L 110.726232 -39.592273 
L 110.203021 -39.592273 
L 109.679811 -39.592273 
L 109.156601 -39.592273 
L 108.633391 -39.592273 
L 108.110181 -39.592273 
L 107.58697 -39.592273 
L 107.06376 -39.592273 
L 106.54055 -39.592273 
L 106.01734 -39.592273 
L 105.49413 -39.592273 
L 104.970919 -39.592273 
L 104.447709 -39.592273 
L 103.924499 -39.592273 
L 103.401289 -39.592273 
L 102.878079 -39.592273 
L 102.354868 -39.592273 
L 101.831658 -39.592273 
L 101.308448 -39.592273 
L 100.785238 -39.592273 
L 100.262028 -39.592273 
L 99.738817 -39.592273 
L 99.215607 -39.592273 
L 98.692397 -39.592273 
L 98.169187 -39.592273 
L 97.645977 -39.592273 
L 97.122766 -39.592273 
L 96.599556 -39.592273 
L 96.076346 -39.592273 
L 95.553136 -39.592273 
L 95.029926 -39.592273 
L 94.506715 -39.592273 
L 93.983505 -39.592273 
L 93.460295 -39.592273 
L 92.937085 -39.592273 
L 92.413875 -39.592273 
L 91.890664 -39.592273 
L 91.367454 -39.592273 
L 90.844244 -39.592273 
L 90.321034 -39.592273 
L 89.797824 -39.592273 
L 89.274613 -39.592273 
L 88.751403 -39.592273 
L 88.228193 -39.592273 
L 87.704983 -39.592273 
L 87.181773 -39.592273 
L 86.658562 -39.592273 
L 86.135352 -39.592273 
L 85.612142 -39.592273 
L 85.088932 -39.592273 
L 84.565722 -39.592273 
L 84.042511 -39.592273 
L 83.519301 -39.592273 
L 82.996091 -39.592273 
L 82.472881 -39.592273 
L 81.949671 -39.592273 
L 81.42646 -39.592273 
L 80.90325 -39.592273 
L 80.38004 -39.592273 
L 79.85683 -39.592273 
L 79.33362 -39.592273 
L 78.810409 -39.592273 
L 78.287199 -39.592273 
L 77.763989 -39.592273 
L 77.240779 -39.592273 
L 76.717569 -39.592273 
L 76.194358 -39.592273 
L 75.671148 -39.592273 
L 75.147938 -39.592273 
L 74.624728 -39.592273 
L 74.101518 -39.592273 
L 73.578307 -39.592273 
L 73.055097 -39.592273 
L 72.531887 -39.592273 
L 72.008677 -39.592273 
L 71.485467 -39.592273 
L 70.962256 -39.592273 
L 70.439046 -39.592273 
L 69.915836 -39.592273 
L 69.392626 -39.592273 
L 68.869416 -39.592273 
L 68.346205 -39.592273 
L 67.822995 -39.592273 
L 67.299785 -39.592273 
L 66.776575 -39.592273 
L 66.253365 -39.592273 
L 65.730154 -39.592273 
L 65.206944 -39.592273 
L 64.683734 -39.592273 
L 64.160524 -39.592273 
L 63.637314 -39.592273 
L 63.114103 -39.592273 
L 62.590893 -39.592273 
L 62.067683 -39.592273 
L 61.544473 -39.592273 
L 61.021263 -39.592273 
L 60.498052 -39.592273 
L 59.974842 -39.592273 
L 59.451632 -39.592273 
L 58.928422 -39.592273 
L 58.405212 -39.592273 
L 57.882001 -39.592273 
L 57.358791 -39.592273 
L 56.835581 -39.592273 
L 56.312371 -39.592273 
L 55.789161 -39.592273 
L 55.26595 -39.592273 
L 54.74274 -39.592273 
L 54.21953 -39.592273 
L 53.69632 -39.592273 
L 53.17311 -39.592273 
L 52.649899 -39.592273 
L 52.126689 -39.592273 
L 51.603479 -39.592273 
L 51.080269 -39.592273 
L 50.557059 -39.592273 
L 50.033848 -39.592273 
L 49.510638 -39.592273 
L 48.987428 -39.592273 
L 48.464218 -39.592273 
L 47.941008 -39.592273 
L 47.417797 -39.592273 
L 46.894587 -39.592273 
L 46.371377 -39.592273 
L 45.848167 -39.592273 
L 45.324957 -39.592273 
L 44.801746 -39.592273 
L 44.278536 -39.592273 
L 43.755326 -39.592273 
L 43.232116 -39.592273 
L 42.708906 -39.592273 
L 42.185695 -39.592273 
L 41.662485 -39.592273 
L 41.139275 -39.592273 
L 40.616065 -39.592273 
L 40.092855 -39.592273 
L 39.569644 -39.592273 
L 39.046434 -39.592273 
L 38.523224 -39.592273 
L 38.000014 -39.592273 
L 37.476804 -39.592273 
L 36.953593 -39.592273 
L 36.430383 -39.592273 
L 35.907173 -39.592273 
L 35.383963 -39.592273 
L 34.860753 -39.592273 
L 34.337542 -39.592273 
L 33.814332 -39.592273 
L 33.291122 -39.592273 
L 32.767912 -39.592273 
L 32.244702 -39.592273 
L 31.721491 -39.592273 
L 31.198281 -39.592273 
z
"/>
    </defs>
    <g clip-path="url(#pc913fec286)">
     <use xlink:href="#me8a4863beb" x="0" y="183.303672" style="fill: #0072b2; fill-opacity: 0.18"/>
    </g>
   </g>
   <g id="PolyCollection_2">
    <defs>
     <path id="m97ec06d5a9" d="M 31.198281 -39.592273 
L 31.198281 -39.734409 
L 31.721491 -39.749586 
L 32.244702 -39.766129 
L 32.767912 -39.784128 
L 33.291122 -39.803682 
L 33.814332 -39.824887 
L 34.337542 -39.847844 
L 34.860753 -39.872657 
L 35.383963 -39.89943 
L 35.907173 -39.928269 
L 36.430383 -39.95928 
L 36.953593 -39.99257 
L 37.476804 -40.028245 
L 38.000014 -40.06641 
L 38.523224 -40.107168 
L 39.046434 -40.15062 
L 39.569644 -40.196862 
L 40.092855 -40.245989 
L 40.616065 -40.298086 
L 41.139275 -40.353238 
L 41.662485 -40.411517 
L 42.185695 -40.472992 
L 42.708906 -40.53772 
L 43.232116 -40.60575 
L 43.755326 -40.67712 
L 44.278536 -40.751854 
L 44.801746 -40.829967 
L 45.324957 -40.911457 
L 45.848167 -40.996311 
L 46.371377 -41.084498 
L 46.894587 -41.175972 
L 47.417797 -41.270671 
L 47.941008 -41.368515 
L 48.464218 -41.469406 
L 48.987428 -41.573228 
L 49.510638 -41.679848 
L 50.033848 -41.789112 
L 50.557059 -41.900848 
L 51.080269 -42.014866 
L 51.603479 -42.130957 
L 52.126689 -42.248895 
L 52.649899 -42.368433 
L 53.17311 -42.48931 
L 53.69632 -42.611248 
L 54.21953 -42.733952 
L 54.74274 -42.857114 
L 55.26595 -42.980413 
L 55.789161 -43.103514 
L 56.312371 -43.226073 
L 56.835581 -43.347737 
L 57.358791 -43.468145 
L 57.882001 -43.58693 
L 58.405212 -43.703722 
L 58.928422 -43.818149 
L 59.451632 -43.929839 
L 59.974842 -44.03842 
L 60.498052 -44.143527 
L 61.021263 -44.244801 
L 61.544473 -44.341888 
L 62.067683 -44.434448 
L 62.590893 -44.522151 
L 63.114103 -44.604681 
L 63.637314 -44.68174 
L 64.160524 -44.753046 
L 64.683734 -44.818337 
L 65.206944 -44.877372 
L 65.730154 -44.929933 
L 66.253365 -44.975826 
L 66.776575 -45.014881 
L 67.299785 -45.046955 
L 67.822995 -45.071932 
L 68.346205 -45.089722 
L 68.869416 -45.100266 
L 69.392626 -45.103532 
L 69.915836 -45.099514 
L 70.439046 -45.08824 
L 70.962256 -45.06976 
L 71.485467 -45.044158 
L 72.008677 -45.011539 
L 72.531887 -44.972041 
L 73.055097 -44.925821 
L 73.578307 -44.873066 
L 74.101518 -44.813984 
L 74.624728 -44.748803 
L 75.147938 -44.677775 
L 75.671148 -44.601169 
L 76.194358 -44.519272 
L 76.717569 -44.432385 
L 77.240779 -44.340824 
L 77.763989 -44.244916 
L 78.287199 -44.144998 
L 78.810409 -44.041417 
L 79.33362 -43.934523 
L 79.85683 -43.824671 
L 80.38004 -43.712219 
L 80.90325 -43.597526 
L 81.42646 -43.480948 
L 81.949671 -43.362838 
L 82.472881 -43.243545 
L 82.996091 -43.123411 
L 83.519301 -43.00277 
L 84.042511 -42.881948 
L 84.565722 -42.761258 
L 85.088932 -42.641003 
L 85.612142 -42.521473 
L 86.135352 -42.402943 
L 86.658562 -42.285675 
L 87.181773 -42.169913 
L 87.704983 -42.055889 
L 88.228193 -41.943814 
L 88.751403 -41.833887 
L 89.274613 -41.726286 
L 89.797824 -41.621174 
L 90.321034 -41.518698 
L 90.844244 -41.418984 
L 91.367454 -41.322147 
L 91.890664 -41.228281 
L 92.413875 -41.137466 
L 92.937085 -41.049767 
L 93.460295 -40.965233 
L 93.983505 -40.883899 
L 94.506715 -40.805787 
L 95.029926 -40.730905 
L 95.553136 -40.659251 
L 96.076346 -40.590809 
L 96.599556 -40.525556 
L 97.122766 -40.463456 
L 97.645977 -40.404468 
L 98.169187 -40.348541 
L 98.692397 -40.295618 
L 99.215607 -40.245636 
L 99.738817 -40.198528 
L 100.262028 -40.154223 
L 100.785238 -40.112645 
L 101.308448 -40.073719 
L 101.831658 -40.037367 
L 102.354868 -40.00351 
L 102.878079 -39.972072 
L 103.401289 -39.942977 
L 103.924499 -39.916149 
L 104.447709 -39.891519 
L 104.970919 -39.869019 
L 105.49413 -39.848585 
L 106.01734 -39.830159 
L 106.54055 -39.81369 
L 107.06376 -39.799131 
L 107.58697 -39.786444 
L 108.110181 -39.775597 
L 108.633391 -39.766567 
L 109.156601 -39.759339 
L 109.679811 -39.753909 
L 110.203021 -39.75028 
L 110.726232 -39.748468 
L 111.249442 -39.748498 
L 111.772652 -39.750406 
L 112.295862 -39.754241 
L 112.819072 -39.760061 
L 113.342283 -39.767938 
L 113.865493 -39.777957 
L 114.388703 -39.790214 
L 114.911913 -39.804817 
L 115.435123 -39.821889 
L 115.958334 -39.841565 
L 116.481544 -39.863992 
L 117.004754 -39.88933 
L 117.527964 -39.917752 
L 118.051174 -39.949444 
L 118.574385 -39.984602 
L 119.097595 -40.023434 
L 119.620805 -40.06616 
L 120.144015 -40.113009 
L 120.667225 -40.164218 
L 121.190436 -40.220037 
L 121.713646 -40.280717 
L 122.236856 -40.346521 
L 122.760066 -40.417713 
L 123.283276 -40.494561 
L 123.806487 -40.577337 
L 124.329697 -40.666309 
L 124.852907 -40.761747 
L 125.376117 -40.863914 
L 125.899327 -40.97307 
L 126.422538 -41.089464 
L 126.945748 -41.213336 
L 127.468958 -41.344914 
L 127.992168 -41.484409 
L 128.515378 -41.632014 
L 129.038589 -41.787904 
L 129.561799 -41.952228 
L 130.085009 -42.125113 
L 130.608219 -42.306656 
L 131.131429 -42.496924 
L 131.65464 -42.695953 
L 132.17785 -42.903742 
L 132.70106 -43.120256 
L 133.22427 -43.34542 
L 133.74748 -43.57912 
L 134.270691 -43.821201 
L 134.793901 -44.071464 
L 135.317111 -44.329669 
L 135.840321 -44.595531 
L 136.363531 -44.868724 
L 136.886742 -45.148874 
L 137.409952 -45.435571 
L 137.933162 -45.728357 
L 138.456372 -46.02674 
L 138.979582 -46.330186 
L 139.502793 -46.638126 
L 140.026003 -46.949959 
L 140.549213 -47.265054 
L 141.072423 -47.582754 
L 141.595633 -47.902377 
L 142.118844 -48.223225 
L 142.642054 -48.544587 
L 143.165264 -48.86574 
L 143.688474 -49.185958 
L 144.211684 -49.504517 
L 144.734895 -49.820698 
L 145.258105 -50.133794 
L 145.781315 -50.443116 
L 146.304525 -50.747997 
L 146.827735 -51.047795 
L 147.350946 -51.341906 
L 147.874156 -51.629759 
L 148.397366 -51.91083 
L 148.920576 -52.184638 
L 149.443786 -52.450757 
L 149.966997 -52.708813 
L 150.490207 -52.958491 
L 151.013417 -53.199538 
L 151.536627 -53.431764 
L 152.059837 -53.655044 
L 152.583048 -53.869317 
L 153.106258 -54.074593 
L 153.629468 -54.270947 
L 154.152678 -54.45852 
L 154.675888 -54.637519 
L 155.199099 -54.808216 
L 155.722309 -54.970944 
L 156.245519 -55.126095 
L 156.768729 -55.274119 
L 157.291939 -55.415517 
L 157.81515 -55.550841 
L 158.33836 -55.680686 
L 158.86157 -55.805688 
L 159.38478 -55.926521 
L 159.90799 -56.043888 
L 160.431201 -56.158521 
L 160.954411 -56.271171 
L 161.477621 -56.382608 
L 162.000831 -56.493613 
L 162.524041 -56.604978 
L 163.047252 -56.717495 
L 163.570462 -56.831956 
L 164.093672 -56.949152 
L 164.616882 -57.069864 
L 165.140092 -57.194862 
L 165.663303 -57.324905 
L 166.186513 -57.460735 
L 166.709723 -57.603077 
L 167.232933 -57.752638 
L 167.756143 -57.910107 
L 168.279354 -58.07615 
L 168.802564 -58.251416 
L 169.325774 -58.436531 
L 169.848984 -58.632104 
L 170.372194 -58.838726 
L 170.895405 -59.056969 
L 171.418615 -59.287388 
L 171.941825 -59.530526 
L 172.465035 -59.786913 
L 172.988245 -60.057064 
L 173.511456 -60.341489 
L 174.034666 -60.640687 
L 174.557876 -60.955152 
L 175.081086 -61.285371 
L 175.604296 -61.631829 
L 176.127507 -61.995008 
L 176.650717 -62.375388 
L 177.173927 -62.773445 
L 177.697137 -63.189659 
L 178.220347 -63.624503 
L 178.743558 -64.078451 
L 179.266768 -64.551976 
L 179.789978 -65.045545 
L 180.313188 -65.559621 
L 180.836398 -66.094662 
L 181.359609 -66.651116 
L 181.882819 -67.229423 
L 182.406029 -67.830007 
L 182.929239 -68.453283 
L 183.452449 -69.099643 
L 183.97566 -69.769463 
L 184.49887 -70.463096 
L 185.02208 -71.18087 
L 185.54529 -71.923088 
L 186.0685 -72.690021 
L 186.591711 -73.48191 
L 187.114921 -74.298965 
L 187.638131 -75.141359 
L 188.161341 -76.009232 
L 188.684551 -76.902685 
L 189.207762 -77.821783 
L 189.730972 -78.766555 
L 190.254182 -79.73699 
L 190.777392 -80.733043 
L 191.300602 -81.75463 
L 191.823813 -82.801634 
L 192.347023 -83.873903 
L 192.870233 -84.971253 
L 193.393443 -86.093467 
L 193.916653 -87.240299 
L 194.439864 -88.411477 
L 194.963074 -89.606699 
L 195.486284 -90.825638 
L 196.009494 -92.067944 
L 196.532704 -93.333241 
L 197.055915 -94.621129 
L 197.579125 -95.931187 
L 198.102335 -97.262965 
L 198.625545 -98.615989 
L 199.148755 -99.989755 
L 199.671966 -101.383728 
L 200.195176 -102.797337 
L 200.718386 -104.229972 
L 201.241596 -105.680975 
L 201.764806 -107.14964 
L 202.288017 -108.6352 
L 202.811227 -110.136821 
L 203.334437 -111.653595 
L 203.857647 -113.184531 
L 204.380857 -114.728542 
L 204.904068 -116.284438 
L 205.427278 -117.850917 
L 205.950488 -119.426551 
L 206.473698 -121.009776 
L 206.996908 -122.598885 
L 207.520119 -124.192016 
L 208.043329 -125.787143 
L 208.566539 -127.382068 
L 209.089749 -128.974412 
L 209.612959 -130.561613 
L 210.13617 -132.140916 
L 210.65938 -133.709374 
L 211.18259 -135.263845 
L 211.7058 -136.800992 
L 212.22901 -138.317287 
L 212.752221 -139.809015 
L 213.275431 -141.272282 
L 213.798641 -142.703023 
L 214.321851 -144.097016 
L 214.845061 -145.449898 
L 215.368272 -146.757176 
L 215.891482 -148.014255 
L 216.414692 -149.216453 
L 216.937902 -150.359027 
L 217.461112 -151.437201 
L 217.984323 -152.446195 
L 218.507533 -153.381248 
L 219.030743 -154.237657 
L 219.553953 -155.010807 
L 220.077163 -155.696203 
L 220.600374 -156.289502 
L 221.123584 -156.786554 
L 221.646794 -157.183429 
L 222.170004 -157.476452 
L 222.693214 -157.66224 
L 223.216425 -157.737727 
L 223.739635 -157.700199 
L 224.262845 -157.547317 
L 224.786055 -157.277149 
L 225.309265 -156.888187 
L 225.832476 -156.379371 
L 226.355686 -155.750104 
L 226.878896 -155.000268 
L 227.402106 -154.130233 
L 227.925316 -153.140863 
L 228.448527 -152.03352 
L 228.971737 -150.810062 
L 229.494947 -149.472839 
L 230.018157 -148.024685 
L 230.541367 -146.468902 
L 231.064578 -144.809246 
L 231.587788 -143.04991 
L 232.110998 -141.195495 
L 232.634208 -139.250986 
L 233.157418 -137.221725 
L 233.680629 -135.113376 
L 234.203839 -132.931891 
L 234.727049 -130.683476 
L 235.250259 -128.374551 
L 235.773469 -126.011712 
L 236.29668 -123.60169 
L 236.81989 -121.151312 
L 237.3431 -118.667458 
L 237.86631 -116.157026 
L 238.38952 -113.626884 
L 238.912731 -111.08384 
L 239.435941 -108.534597 
L 239.959151 -105.985724 
L 240.482361 -103.443616 
L 240.482361 -39.592273 
L 240.482361 -39.592273 
L 239.959151 -39.592273 
L 239.435941 -39.592273 
L 238.912731 -39.592273 
L 238.38952 -39.592273 
L 237.86631 -39.592273 
L 237.3431 -39.592273 
L 236.81989 -39.592273 
L 236.29668 -39.592273 
L 235.773469 -39.592273 
L 235.250259 -39.592273 
L 234.727049 -39.592273 
L 234.203839 -39.592273 
L 233.680629 -39.592273 
L 233.157418 -39.592273 
L 232.634208 -39.592273 
L 232.110998 -39.592273 
L 231.587788 -39.592273 
L 231.064578 -39.592273 
L 230.541367 -39.592273 
L 230.018157 -39.592273 
L 229.494947 -39.592273 
L 228.971737 -39.592273 
L 228.448527 -39.592273 
L 227.925316 -39.592273 
L 227.402106 -39.592273 
L 226.878896 -39.592273 
L 226.355686 -39.592273 
L 225.832476 -39.592273 
L 225.309265 -39.592273 
L 224.786055 -39.592273 
L 224.262845 -39.592273 
L 223.739635 -39.592273 
L 223.216425 -39.592273 
L 222.693214 -39.592273 
L 222.170004 -39.592273 
L 221.646794 -39.592273 
L 221.123584 -39.592273 
L 220.600374 -39.592273 
L 220.077163 -39.592273 
L 219.553953 -39.592273 
L 219.030743 -39.592273 
L 218.507533 -39.592273 
L 217.984323 -39.592273 
L 217.461112 -39.592273 
L 216.937902 -39.592273 
L 216.414692 -39.592273 
L 215.891482 -39.592273 
L 215.368272 -39.592273 
L 214.845061 -39.592273 
L 214.321851 -39.592273 
L 213.798641 -39.592273 
L 213.275431 -39.592273 
L 212.752221 -39.592273 
L 212.22901 -39.592273 
L 211.7058 -39.592273 
L 211.18259 -39.592273 
L 210.65938 -39.592273 
L 210.13617 -39.592273 
L 209.612959 -39.592273 
L 209.089749 -39.592273 
L 208.566539 -39.592273 
L 208.043329 -39.592273 
L 207.520119 -39.592273 
L 206.996908 -39.592273 
L 206.473698 -39.592273 
L 205.950488 -39.592273 
L 205.427278 -39.592273 
L 204.904068 -39.592273 
L 204.380857 -39.592273 
L 203.857647 -39.592273 
L 203.334437 -39.592273 
L 202.811227 -39.592273 
L 202.288017 -39.592273 
L 201.764806 -39.592273 
L 201.241596 -39.592273 
L 200.718386 -39.592273 
L 200.195176 -39.592273 
L 199.671966 -39.592273 
L 199.148755 -39.592273 
L 198.625545 -39.592273 
L 198.102335 -39.592273 
L 197.579125 -39.592273 
L 197.055915 -39.592273 
L 196.532704 -39.592273 
L 196.009494 -39.592273 
L 195.486284 -39.592273 
L 194.963074 -39.592273 
L 194.439864 -39.592273 
L 193.916653 -39.592273 
L 193.393443 -39.592273 
L 192.870233 -39.592273 
L 192.347023 -39.592273 
L 191.823813 -39.592273 
L 191.300602 -39.592273 
L 190.777392 -39.592273 
L 190.254182 -39.592273 
L 189.730972 -39.592273 
L 189.207762 -39.592273 
L 188.684551 -39.592273 
L 188.161341 -39.592273 
L 187.638131 -39.592273 
L 187.114921 -39.592273 
L 186.591711 -39.592273 
L 186.0685 -39.592273 
L 185.54529 -39.592273 
L 185.02208 -39.592273 
L 184.49887 -39.592273 
L 183.97566 -39.592273 
L 183.452449 -39.592273 
L 182.929239 -39.592273 
L 182.406029 -39.592273 
L 181.882819 -39.592273 
L 181.359609 -39.592273 
L 180.836398 -39.592273 
L 180.313188 -39.592273 
L 179.789978 -39.592273 
L 179.266768 -39.592273 
L 178.743558 -39.592273 
L 178.220347 -39.592273 
L 177.697137 -39.592273 
L 177.173927 -39.592273 
L 176.650717 -39.592273 
L 176.127507 -39.592273 
L 175.604296 -39.592273 
L 175.081086 -39.592273 
L 174.557876 -39.592273 
L 174.034666 -39.592273 
L 173.511456 -39.592273 
L 172.988245 -39.592273 
L 172.465035 -39.592273 
L 171.941825 -39.592273 
L 171.418615 -39.592273 
L 170.895405 -39.592273 
L 170.372194 -39.592273 
L 169.848984 -39.592273 
L 169.325774 -39.592273 
L 168.802564 -39.592273 
L 168.279354 -39.592273 
L 167.756143 -39.592273 
L 167.232933 -39.592273 
L 166.709723 -39.592273 
L 166.186513 -39.592273 
L 165.663303 -39.592273 
L 165.140092 -39.592273 
L 164.616882 -39.592273 
L 164.093672 -39.592273 
L 163.570462 -39.592273 
L 163.047252 -39.592273 
L 162.524041 -39.592273 
L 162.000831 -39.592273 
L 161.477621 -39.592273 
L 160.954411 -39.592273 
L 160.431201 -39.592273 
L 159.90799 -39.592273 
L 159.38478 -39.592273 
L 158.86157 -39.592273 
L 158.33836 -39.592273 
L 157.81515 -39.592273 
L 157.291939 -39.592273 
L 156.768729 -39.592273 
L 156.245519 -39.592273 
L 155.722309 -39.592273 
L 155.199099 -39.592273 
L 154.675888 -39.592273 
L 154.152678 -39.592273 
L 153.629468 -39.592273 
L 153.106258 -39.592273 
L 152.583048 -39.592273 
L 152.059837 -39.592273 
L 151.536627 -39.592273 
L 151.013417 -39.592273 
L 150.490207 -39.592273 
L 149.966997 -39.592273 
L 149.443786 -39.592273 
L 148.920576 -39.592273 
L 148.397366 -39.592273 
L 147.874156 -39.592273 
L 147.350946 -39.592273 
L 146.827735 -39.592273 
L 146.304525 -39.592273 
L 145.781315 -39.592273 
L 145.258105 -39.592273 
L 144.734895 -39.592273 
L 144.211684 -39.592273 
L 143.688474 -39.592273 
L 143.165264 -39.592273 
L 142.642054 -39.592273 
L 142.118844 -39.592273 
L 141.595633 -39.592273 
L 141.072423 -39.592273 
L 140.549213 -39.592273 
L 140.026003 -39.592273 
L 139.502793 -39.592273 
L 138.979582 -39.592273 
L 138.456372 -39.592273 
L 137.933162 -39.592273 
L 137.409952 -39.592273 
L 136.886742 -39.592273 
L 136.363531 -39.592273 
L 135.840321 -39.592273 
L 135.317111 -39.592273 
L 134.793901 -39.592273 
L 134.270691 -39.592273 
L 133.74748 -39.592273 
L 133.22427 -39.592273 
L 132.70106 -39.592273 
L 132.17785 -39.592273 
L 131.65464 -39.592273 
L 131.131429 -39.592273 
L 130.608219 -39.592273 
L 130.085009 -39.592273 
L 129.561799 -39.592273 
L 129.038589 -39.592273 
L 128.515378 -39.592273 
L 127.992168 -39.592273 
L 127.468958 -39.592273 
L 126.945748 -39.592273 
L 126.422538 -39.592273 
L 125.899327 -39.592273 
L 125.376117 -39.592273 
L 124.852907 -39.592273 
L 124.329697 -39.592273 
L 123.806487 -39.592273 
L 123.283276 -39.592273 
L 122.760066 -39.592273 
L 122.236856 -39.592273 
L 121.713646 -39.592273 
L 121.190436 -39.592273 
L 120.667225 -39.592273 
L 120.144015 -39.592273 
L 119.620805 -39.592273 
L 119.097595 -39.592273 
L 118.574385 -39.592273 
L 118.051174 -39.592273 
L 117.527964 -39.592273 
L 117.004754 -39.592273 
L 116.481544 -39.592273 
L 115.958334 -39.592273 
L 115.435123 -39.592273 
L 114.911913 -39.592273 
L 114.388703 -39.592273 
L 113.865493 -39.592273 
L 113.342283 -39.592273 
L 112.819072 -39.592273 
L 112.295862 -39.592273 
L 111.772652 -39.592273 
L 111.249442 -39.592273 
L 110.726232 -39.592273 
L 110.203021 -39.592273 
L 109.679811 -39.592273 
L 109.156601 -39.592273 
L 108.633391 -39.592273 
L 108.110181 -39.592273 
L 107.58697 -39.592273 
L 107.06376 -39.592273 
L 106.54055 -39.592273 
L 106.01734 -39.592273 
L 105.49413 -39.592273 
L 104.970919 -39.592273 
L 104.447709 -39.592273 
L 103.924499 -39.592273 
L 103.401289 -39.592273 
L 102.878079 -39.592273 
L 102.354868 -39.592273 
L 101.831658 -39.592273 
L 101.308448 -39.592273 
L 100.785238 -39.592273 
L 100.262028 -39.592273 
L 99.738817 -39.592273 
L 99.215607 -39.592273 
L 98.692397 -39.592273 
L 98.169187 -39.592273 
L 97.645977 -39.592273 
L 97.122766 -39.592273 
L 96.599556 -39.592273 
L 96.076346 -39.592273 
L 95.553136 -39.592273 
L 95.029926 -39.592273 
L 94.506715 -39.592273 
L 93.983505 -39.592273 
L 93.460295 -39.592273 
L 92.937085 -39.592273 
L 92.413875 -39.592273 
L 91.890664 -39.592273 
L 91.367454 -39.592273 
L 90.844244 -39.592273 
L 90.321034 -39.592273 
L 89.797824 -39.592273 
L 89.274613 -39.592273 
L 88.751403 -39.592273 
L 88.228193 -39.592273 
L 87.704983 -39.592273 
L 87.181773 -39.592273 
L 86.658562 -39.592273 
L 86.135352 -39.592273 
L 85.612142 -39.592273 
L 85.088932 -39.592273 
L 84.565722 -39.592273 
L 84.042511 -39.592273 
L 83.519301 -39.592273 
L 82.996091 -39.592273 
L 82.472881 -39.592273 
L 81.949671 -39.592273 
L 81.42646 -39.592273 
L 80.90325 -39.592273 
L 80.38004 -39.592273 
L 79.85683 -39.592273 
L 79.33362 -39.592273 
L 78.810409 -39.592273 
L 78.287199 -39.592273 
L 77.763989 -39.592273 
L 77.240779 -39.592273 
L 76.717569 -39.592273 
L 76.194358 -39.592273 
L 75.671148 -39.592273 
L 75.147938 -39.592273 
L 74.624728 -39.592273 
L 74.101518 -39.592273 
L 73.578307 -39.592273 
L 73.055097 -39.592273 
L 72.531887 -39.592273 
L 72.008677 -39.592273 
L 71.485467 -39.592273 
L 70.962256 -39.592273 
L 70.439046 -39.592273 
L 69.915836 -39.592273 
L 69.392626 -39.592273 
L 68.869416 -39.592273 
L 68.346205 -39.592273 
L 67.822995 -39.592273 
L 67.299785 -39.592273 
L 66.776575 -39.592273 
L 66.253365 -39.592273 
L 65.730154 -39.592273 
L 65.206944 -39.592273 
L 64.683734 -39.592273 
L 64.160524 -39.592273 
L 63.637314 -39.592273 
L 63.114103 -39.592273 
L 62.590893 -39.592273 
L 62.067683 -39.592273 
L 61.544473 -39.592273 
L 61.021263 -39.592273 
L 60.498052 -39.592273 
L 59.974842 -39.592273 
L 59.451632 -39.592273 
L 58.928422 -39.592273 
L 58.405212 -39.592273 
L 57.882001 -39.592273 
L 57.358791 -39.592273 
L 56.835581 -39.592273 
L 56.312371 -39.592273 
L 55.789161 -39.592273 
L 55.26595 -39.592273 
L 54.74274 -39.592273 
L 54.21953 -39.592273 
L 53.69632 -39.592273 
L 53.17311 -39.592273 
L 52.649899 -39.592273 
L 52.126689 -39.592273 
L 51.603479 -39.592273 
L 51.080269 -39.592273 
L 50.557059 -39.592273 
L 50.033848 -39.592273 
L 49.510638 -39.592273 
L 48.987428 -39.592273 
L 48.464218 -39.592273 
L 47.941008 -39.592273 
L 47.417797 -39.592273 
L 46.894587 -39.592273 
L 46.371377 -39.592273 
L 45.848167 -39.592273 
L 45.324957 -39.592273 
L 44.801746 -39.592273 
L 44.278536 -39.592273 
L 43.755326 -39.592273 
L 43.232116 -39.592273 
L 42.708906 -39.592273 
L 42.185695 -39.592273 
L 41.662485 -39.592273 
L 41.139275 -39.592273 
L 40.616065 -39.592273 
L 40.092855 -39.592273 
L 39.569644 -39.592273 
L 39.046434 -39.592273 
L 38.523224 -39.592273 
L 38.000014 -39.592273 
L 37.476804 -39.592273 
L 36.953593 -39.592273 
L 36.430383 -39.592273 
L 35.907173 -39.592273 
L 35.383963 -39.592273 
L 34.860753 -39.592273 
L 34.337542 -39.592273 
L 33.814332 -39.592273 
L 33.291122 -39.592273 
L 32.767912 -39.592273 
L 32.244702 -39.592273 
L 31.721491 -39.592273 
L 31.198281 -39.592273 
z
"/>
    </defs>
    <g clip-path="url(#pc913fec286)">
     <use xlink:href="#m97ec06d5a9" x="0" y="183.303672" style="fill: #d55e00; fill-opacity: 0.2"/>
    </g>
   </g>
   <g id="matplotlib.axis_1">
    <g id="xtick_1">
     <g id="line2d_1">
      <defs>
       <path id="m9eac4d9108" d="M 0 0 
L 0 3.5 
" style="stroke: #000000; stroke-width: 0.7"/>
      </defs>
      <g>
       <use xlink:href="#m9eac4d9108" x="31.198281" y="149.618672" style="stroke: #000000; stroke-width: 0.7"/>
      </g>
     </g>
     <g id="text_1">
      <!-- 0.0 -->
      <g transform="translate(25.234609 162.3175)scale(0.075 -0.075)">
       <defs>
        <path id="DejaVuSerif-30" d="M 2034 219 
Q 2513 219 2750 744 
Q 2988 1269 2988 2328 
Q 2988 3391 2750 3916 
Q 2513 4441 2034 4441 
Q 1556 4441 1318 3916 
Q 1081 3391 1081 2328 
Q 1081 1269 1318 744 
Q 1556 219 2034 219 
z
M 2034 -91 
Q 1275 -91 848 546 
Q 422 1184 422 2328 
Q 422 3475 848 4112 
Q 1275 4750 2034 4750 
Q 2797 4750 3222 4112 
Q 3647 3475 3647 2328 
Q 3647 1184 3222 546 
Q 2797 -91 2034 -91 
z
" transform="scale(0.015625)"/>
        <path id="DejaVuSerif-2e" d="M 603 325 
Q 603 500 722 622 
Q 841 744 1019 744 
Q 1191 744 1312 622 
Q 1434 500 1434 325 
Q 1434 153 1312 31 
Q 1191 -91 1019 -91 
Q 841 -91 722 29 
Q 603 150 603 325 
z
" transform="scale(0.015625)"/>
       </defs>
       <use xlink:href="#DejaVuSerif-30"/>
       <use xlink:href="#DejaVuSerif-2e" x="63.623047"/>
       <use xlink:href="#DejaVuSerif-30" x="95.410156"/>
      </g>
     </g>
    </g>
    <g id="xtick_2">
     <g id="line2d_2">
      <g>
       <use xlink:href="#m9eac4d9108" x="73.055097" y="149.618672" style="stroke: #000000; stroke-width: 0.7"/>
      </g>
     </g>
     <g id="text_2">
      <!-- 0.2 -->
      <g transform="translate(67.091425 162.3175)scale(0.075 -0.075)">
       <defs>
        <path id="DejaVuSerif-32" d="M 819 3553 
L 469 3553 
L 469 4384 
Q 803 4563 1142 4656 
Q 1481 4750 1806 4750 
Q 2534 4750 2956 4397 
Q 3378 4044 3378 3438 
Q 3378 2753 2422 1800 
Q 2347 1728 2309 1691 
L 1131 513 
L 3078 513 
L 3078 1088 
L 3444 1088 
L 3444 0 
L 434 0 
L 434 341 
L 1850 1753 
Q 2319 2222 2519 2614 
Q 2719 3006 2719 3438 
Q 2719 3909 2473 4175 
Q 2228 4441 1797 4441 
Q 1350 4441 1106 4219 
Q 863 3997 819 3553 
z
" transform="scale(0.015625)"/>
       </defs>
       <use xlink:href="#DejaVuSerif-30"/>
       <use xlink:href="#DejaVuSerif-2e" x="63.623047"/>
       <use xlink:href="#DejaVuSerif-32" x="95.410156"/>
      </g>
     </g>
    </g>
    <g id="xtick_3">
     <g id="line2d_3">
      <g>
       <use xlink:href="#m9eac4d9108" x="114.911913" y="149.618672" style="stroke: #000000; stroke-width: 0.7"/>
      </g>
     </g>
     <g id="text_3">
      <!-- 0.4 -->
      <g transform="translate(108.948241 162.3175)scale(0.075 -0.075)">
       <defs>
        <path id="DejaVuSerif-34" d="M 2234 1581 
L 2234 4063 
L 641 1581 
L 2234 1581 
z
M 3609 0 
L 1484 0 
L 1484 331 
L 2234 331 
L 2234 1247 
L 197 1247 
L 197 1588 
L 2241 4750 
L 2859 4750 
L 2859 1581 
L 3750 1581 
L 3750 1247 
L 2859 1247 
L 2859 331 
L 3609 331 
L 3609 0 
z
" transform="scale(0.015625)"/>
       </defs>
       <use xlink:href="#DejaVuSerif-30"/>
       <use xlink:href="#DejaVuSerif-2e" x="63.623047"/>
       <use xlink:href="#DejaVuSerif-34" x="95.410156"/>
      </g>
     </g>
    </g>
    <g id="xtick_4">
     <g id="line2d_4">
      <g>
       <use xlink:href="#m9eac4d9108" x="156.768729" y="149.618672" style="stroke: #000000; stroke-width: 0.7"/>
      </g>
     </g>
     <g id="text_4">
      <!-- 0.6 -->
      <g transform="translate(150.805057 162.3175)scale(0.075 -0.075)">
       <defs>
        <path id="DejaVuSerif-36" d="M 2094 219 
Q 2534 219 2771 542 
Q 3009 866 3009 1472 
Q 3009 2078 2771 2401 
Q 2534 2725 2094 2725 
Q 1647 2725 1412 2412 
Q 1178 2100 1178 1509 
Q 1178 888 1415 553 
Q 1653 219 2094 219 
z
M 1075 2569 
Q 1288 2803 1556 2918 
Q 1825 3034 2163 3034 
Q 2859 3034 3264 2615 
Q 3669 2197 3669 1472 
Q 3669 763 3233 336 
Q 2797 -91 2069 -91 
Q 1278 -91 853 498 
Q 428 1088 428 2181 
Q 428 3406 931 4078 
Q 1434 4750 2350 4750 
Q 2597 4750 2869 4703 
Q 3141 4656 3425 4563 
L 3425 3794 
L 3072 3794 
Q 3034 4109 2831 4275 
Q 2628 4441 2284 4441 
Q 1678 4441 1381 3981 
Q 1084 3522 1075 2569 
z
" transform="scale(0.015625)"/>
       </defs>
       <use xlink:href="#DejaVuSerif-30"/>
       <use xlink:href="#DejaVuSerif-2e" x="63.623047"/>
       <use xlink:href="#DejaVuSerif-36" x="95.410156"/>
      </g>
     </g>
    </g>
    <g id="xtick_5">
     <g id="line2d_5">
      <g>
       <use xlink:href="#m9eac4d9108" x="198.625545" y="149.618672" style="stroke: #000000; stroke-width: 0.7"/>
      </g>
     </g>
     <g id="text_5">
      <!-- 0.8 -->
      <g transform="translate(192.661873 162.3175)scale(0.075 -0.075)">
       <defs>
        <path id="DejaVuSerif-38" d="M 2981 1275 
Q 2981 1775 2732 2051 
Q 2484 2328 2034 2328 
Q 1584 2328 1336 2051 
Q 1088 1775 1088 1275 
Q 1088 772 1336 495 
Q 1584 219 2034 219 
Q 2484 219 2732 495 
Q 2981 772 2981 1275 
z
M 2853 3541 
Q 2853 3966 2637 4203 
Q 2422 4441 2034 4441 
Q 1650 4441 1433 4203 
Q 1216 3966 1216 3541 
Q 1216 3113 1433 2875 
Q 1650 2638 2034 2638 
Q 2422 2638 2637 2875 
Q 2853 3113 2853 3541 
z
M 2516 2484 
Q 3047 2413 3344 2092 
Q 3641 1772 3641 1275 
Q 3641 619 3225 264 
Q 2809 -91 2034 -91 
Q 1263 -91 845 264 
Q 428 619 428 1275 
Q 428 1772 725 2092 
Q 1022 2413 1556 2484 
Q 1084 2569 832 2842 
Q 581 3116 581 3541 
Q 581 4103 968 4426 
Q 1356 4750 2034 4750 
Q 2713 4750 3100 4426 
Q 3488 4103 3488 3541 
Q 3488 3116 3236 2842 
Q 2984 2569 2516 2484 
z
" transform="scale(0.015625)"/>
       </defs>
       <use xlink:href="#DejaVuSerif-30"/>
       <use xlink:href="#DejaVuSerif-2e" x="63.623047"/>
       <use xlink:href="#DejaVuSerif-38" x="95.410156"/>
      </g>
     </g>
    </g>
    <g id="xtick_6">
     <g id="line2d_6">
      <g>
       <use xlink:href="#m9eac4d9108" x="240.482361" y="149.618672" style="stroke: #000000; stroke-width: 0.7"/>
      </g>
     </g>
     <g id="text_6">
      <!-- 1.0 -->
      <g transform="translate(234.518689 162.3175)scale(0.075 -0.075)">
       <defs>
        <path id="DejaVuSerif-31" d="M 909 0 
L 909 331 
L 1722 331 
L 1722 4213 
L 781 3603 
L 781 4013 
L 1919 4750 
L 2350 4750 
L 2350 331 
L 3163 331 
L 3163 0 
L 909 0 
z
" transform="scale(0.015625)"/>
       </defs>
       <use xlink:href="#DejaVuSerif-31"/>
       <use xlink:href="#DejaVuSerif-2e" x="63.623047"/>
       <use xlink:href="#DejaVuSerif-30" x="95.410156"/>
      </g>
     </g>
    </g>
    <g id="text_7">
     <!-- Normalized power output (p.u.) -->
     <g transform="translate(67.611884 174.335938)scale(0.085 -0.085)">
      <defs>
       <path id="DejaVuSerif-4e" d="M 313 0 
L 313 331 
L 941 331 
L 941 4331 
L 313 4331 
L 313 4666 
L 1509 4666 
L 4306 984 
L 4306 4331 
L 3681 4331 
L 3681 4666 
L 5319 4666 
L 5319 4331 
L 4691 4331 
L 4691 -91 
L 4313 -91 
L 1325 3841 
L 1325 331 
L 1953 331 
L 1953 0 
L 313 0 
z
" transform="scale(0.015625)"/>
       <path id="DejaVuSerif-6f" d="M 1925 219 
Q 2388 219 2623 584 
Q 2859 950 2859 1663 
Q 2859 2375 2623 2739 
Q 2388 3103 1925 3103 
Q 1463 3103 1227 2739 
Q 991 2375 991 1663 
Q 991 950 1228 584 
Q 1466 219 1925 219 
z
M 1925 -91 
Q 1200 -91 759 389 
Q 319 869 319 1663 
Q 319 2456 758 2934 
Q 1197 3413 1925 3413 
Q 2653 3413 3092 2934 
Q 3531 2456 3531 1663 
Q 3531 869 3092 389 
Q 2653 -91 1925 -91 
z
" transform="scale(0.015625)"/>
       <path id="DejaVuSerif-72" d="M 3059 3328 
L 3059 2497 
L 2728 2497 
Q 2713 2744 2591 2866 
Q 2469 2988 2234 2988 
Q 1809 2988 1582 2694 
Q 1356 2400 1356 1850 
L 1356 331 
L 2022 331 
L 2022 0 
L 263 0 
L 263 331 
L 781 331 
L 781 2994 
L 231 2994 
L 231 3322 
L 1356 3322 
L 1356 2731 
Q 1525 3078 1790 3245 
Q 2056 3413 2438 3413 
Q 2578 3413 2733 3391 
Q 2888 3369 3059 3328 
z
" transform="scale(0.015625)"/>
       <path id="DejaVuSerif-6d" d="M 3316 2675 
Q 3481 3041 3739 3227 
Q 3997 3413 4341 3413 
Q 4863 3413 5119 3089 
Q 5375 2766 5375 2113 
L 5375 331 
L 5894 331 
L 5894 0 
L 4300 0 
L 4300 331 
L 4800 331 
L 4800 2047 
Q 4800 2556 4650 2772 
Q 4500 2988 4153 2988 
Q 3769 2988 3567 2697 
Q 3366 2406 3366 1850 
L 3366 331 
L 3866 331 
L 3866 0 
L 2291 0 
L 2291 331 
L 2791 331 
L 2791 2069 
Q 2791 2566 2641 2777 
Q 2491 2988 2144 2988 
Q 1759 2988 1557 2697 
Q 1356 2406 1356 1850 
L 1356 331 
L 1856 331 
L 1856 0 
L 263 0 
L 263 331 
L 781 331 
L 781 2994 
L 231 2994 
L 231 3322 
L 1356 3322 
L 1356 2731 
Q 1516 3063 1762 3238 
Q 2009 3413 2322 3413 
Q 2709 3413 2968 3220 
Q 3228 3028 3316 2675 
z
" transform="scale(0.015625)"/>
       <path id="DejaVuSerif-61" d="M 2547 1044 
L 2547 1747 
L 1806 1747 
Q 1378 1747 1168 1562 
Q 959 1378 959 997 
Q 959 650 1171 447 
Q 1384 244 1747 244 
Q 2106 244 2326 466 
Q 2547 688 2547 1044 
z
M 3122 2075 
L 3122 331 
L 3634 331 
L 3634 0 
L 2547 0 
L 2547 359 
Q 2356 128 2106 18 
Q 1856 -91 1522 -91 
Q 969 -91 644 203 
Q 319 497 319 997 
Q 319 1513 691 1797 
Q 1063 2081 1741 2081 
L 2547 2081 
L 2547 2309 
Q 2547 2688 2317 2895 
Q 2088 3103 1672 3103 
Q 1328 3103 1125 2947 
Q 922 2791 872 2484 
L 575 2484 
L 575 3156 
Q 875 3284 1158 3348 
Q 1441 3413 1709 3413 
Q 2400 3413 2761 3070 
Q 3122 2728 3122 2075 
z
" transform="scale(0.015625)"/>
       <path id="DejaVuSerif-6c" d="M 1313 331 
L 1856 331 
L 1856 0 
L 184 0 
L 184 331 
L 738 331 
L 738 4531 
L 184 4531 
L 184 4863 
L 1313 4863 
L 1313 331 
z
" transform="scale(0.015625)"/>
       <path id="DejaVuSerif-69" d="M 622 4353 
Q 622 4497 726 4603 
Q 831 4709 978 4709 
Q 1122 4709 1226 4603 
Q 1331 4497 1331 4353 
Q 1331 4206 1228 4103 
Q 1125 4000 978 4000 
Q 831 4000 726 4103 
Q 622 4206 622 4353 
z
M 1356 331 
L 1900 331 
L 1900 0 
L 231 0 
L 231 331 
L 781 331 
L 781 2988 
L 231 2988 
L 231 3322 
L 1356 3322 
L 1356 331 
z
" transform="scale(0.015625)"/>
       <path id="DejaVuSerif-7a" d="M 256 0 
L 256 269 
L 2338 2988 
L 691 2988 
L 691 2413 
L 359 2413 
L 359 3322 
L 3078 3322 
L 3078 3053 
L 997 331 
L 2803 331 
L 2803 934 
L 3138 934 
L 3138 0 
L 256 0 
z
" transform="scale(0.015625)"/>
       <path id="DejaVuSerif-65" d="M 3469 1600 
L 991 1600 
L 991 1575 
Q 991 903 1244 561 
Q 1497 219 1991 219 
Q 2369 219 2611 417 
Q 2853 616 2950 1006 
L 3413 1006 
Q 3275 459 2904 184 
Q 2534 -91 1931 -91 
Q 1203 -91 761 389 
Q 319 869 319 1663 
Q 319 2450 753 2931 
Q 1188 3413 1894 3413 
Q 2647 3413 3050 2948 
Q 3453 2484 3469 1600 
z
M 2791 1931 
Q 2772 2513 2545 2808 
Q 2319 3103 1894 3103 
Q 1497 3103 1269 2806 
Q 1041 2509 991 1931 
L 2791 1931 
z
" transform="scale(0.015625)"/>
       <path id="DejaVuSerif-64" d="M 3359 331 
L 3909 331 
L 3909 0 
L 2784 0 
L 2784 519 
Q 2616 206 2355 57 
Q 2094 -91 1709 -91 
Q 1097 -91 708 395 
Q 319 881 319 1663 
Q 319 2444 706 2928 
Q 1094 3413 1709 3413 
Q 2094 3413 2355 3264 
Q 2616 3116 2784 2803 
L 2784 4531 
L 2241 4531 
L 2241 4863 
L 3359 4863 
L 3359 331 
z
M 2784 1497 
L 2784 1825 
Q 2784 2422 2554 2737 
Q 2325 3053 1888 3053 
Q 1444 3053 1217 2703 
Q 991 2353 991 1663 
Q 991 975 1217 622 
Q 1444 269 1888 269 
Q 2325 269 2554 583 
Q 2784 897 2784 1497 
z
" transform="scale(0.015625)"/>
       <path id="DejaVuSerif-20" transform="scale(0.015625)"/>
       <path id="DejaVuSerif-70" d="M 1313 1825 
L 1313 1497 
Q 1313 897 1542 583 
Q 1772 269 2209 269 
Q 2650 269 2876 622 
Q 3103 975 3103 1663 
Q 3103 2353 2876 2703 
Q 2650 3053 2209 3053 
Q 1772 3053 1542 2737 
Q 1313 2422 1313 1825 
z
M 738 2988 
L 184 2988 
L 184 3322 
L 1313 3322 
L 1313 2803 
Q 1481 3116 1742 3264 
Q 2003 3413 2388 3413 
Q 3000 3413 3387 2928 
Q 3775 2444 3775 1663 
Q 3775 881 3387 395 
Q 3000 -91 2388 -91 
Q 2003 -91 1742 57 
Q 1481 206 1313 519 
L 1313 -997 
L 1856 -997 
L 1856 -1331 
L 184 -1331 
L 184 -997 
L 738 -997 
L 738 2988 
z
" transform="scale(0.015625)"/>
       <path id="DejaVuSerif-77" d="M 3072 3322 
L 3922 728 
L 4672 2988 
L 4191 2988 
L 4191 3322 
L 5394 3322 
L 5394 2988 
L 5025 2988 
L 4038 0 
L 3559 0 
L 2741 2484 
L 1919 0 
L 1459 0 
L 475 2988 
L 103 2988 
L 103 3322 
L 1606 3322 
L 1606 2988 
L 1069 2988 
L 1813 728 
L 2669 3322 
L 3072 3322 
z
" transform="scale(0.015625)"/>
       <path id="DejaVuSerif-75" d="M 2266 3322 
L 3341 3322 
L 3341 331 
L 3884 331 
L 3884 0 
L 2766 0 
L 2766 588 
Q 2606 256 2353 82 
Q 2100 -91 1766 -91 
Q 1213 -91 952 223 
Q 691 538 691 1209 
L 691 2988 
L 172 2988 
L 172 3322 
L 1269 3322 
L 1269 1388 
Q 1269 781 1417 556 
Q 1566 331 1947 331 
Q 2347 331 2556 625 
Q 2766 919 2766 1478 
L 2766 2988 
L 2266 2988 
L 2266 3322 
z
" transform="scale(0.015625)"/>
       <path id="DejaVuSerif-74" d="M 691 2988 
L 184 2988 
L 184 3322 
L 691 3322 
L 691 4353 
L 1269 4353 
L 1269 3322 
L 2350 3322 
L 2350 2988 
L 1269 2988 
L 1269 878 
Q 1269 456 1350 337 
Q 1431 219 1650 219 
Q 1875 219 1978 351 
Q 2081 484 2088 781 
L 2522 781 
Q 2497 328 2275 118 
Q 2053 -91 1600 -91 
Q 1103 -91 897 129 
Q 691 350 691 878 
L 691 2988 
z
" transform="scale(0.015625)"/>
       <path id="DejaVuSerif-28" d="M 2041 -997 
Q 1281 -656 893 83 
Q 506 822 506 1931 
Q 506 3044 893 3783 
Q 1281 4522 2041 4863 
L 2041 4556 
Q 1559 4225 1350 3623 
Q 1141 3022 1141 1931 
Q 1141 844 1350 242 
Q 1559 -359 2041 -691 
L 2041 -997 
z
" transform="scale(0.015625)"/>
       <path id="DejaVuSerif-29" d="M 453 -997 
L 453 -691 
Q 934 -359 1145 242 
Q 1356 844 1356 1931 
Q 1356 3022 1145 3623 
Q 934 4225 453 4556 
L 453 4863 
Q 1216 4522 1603 3783 
Q 1991 3044 1991 1931 
Q 1991 822 1603 83 
Q 1216 -656 453 -997 
z
" transform="scale(0.015625)"/>
      </defs>
      <use xlink:href="#DejaVuSerif-4e"/>
      <use xlink:href="#DejaVuSerif-6f" x="87.5"/>
      <use xlink:href="#DejaVuSerif-72" x="147.705078"/>
      <use xlink:href="#DejaVuSerif-6d" x="195.507812"/>
      <use xlink:href="#DejaVuSerif-61" x="290.332031"/>
      <use xlink:href="#DejaVuSerif-6c" x="349.951172"/>
      <use xlink:href="#DejaVuSerif-69" x="381.933594"/>
      <use xlink:href="#DejaVuSerif-7a" x="413.916016"/>
      <use xlink:href="#DejaVuSerif-65" x="466.601562"/>
      <use xlink:href="#DejaVuSerif-64" x="525.78125"/>
      <use xlink:href="#DejaVuSerif-20" x="589.794922"/>
      <use xlink:href="#DejaVuSerif-70" x="621.582031"/>
      <use xlink:href="#DejaVuSerif-6f" x="685.595703"/>
      <use xlink:href="#DejaVuSerif-77" x="745.800781"/>
      <use xlink:href="#DejaVuSerif-65" x="831.396484"/>
      <use xlink:href="#DejaVuSerif-72" x="890.576172"/>
      <use xlink:href="#DejaVuSerif-20" x="938.378906"/>
      <use xlink:href="#DejaVuSerif-6f" x="970.166016"/>
      <use xlink:href="#DejaVuSerif-75" x="1030.371094"/>
      <use xlink:href="#DejaVuSerif-74" x="1094.775391"/>
      <use xlink:href="#DejaVuSerif-70" x="1134.960938"/>
      <use xlink:href="#DejaVuSerif-75" x="1198.974609"/>
      <use xlink:href="#DejaVuSerif-74" x="1263.378906"/>
      <use xlink:href="#DejaVuSerif-20" x="1303.564453"/>
      <use xlink:href="#DejaVuSerif-28" x="1335.351562"/>
      <use xlink:href="#DejaVuSerif-70" x="1374.365234"/>
      <use xlink:href="#DejaVuSerif-2e" x="1438.378906"/>
      <use xlink:href="#DejaVuSerif-75" x="1470.166016"/>
      <use xlink:href="#DejaVuSerif-2e" x="1534.570312"/>
      <use xlink:href="#DejaVuSerif-29" x="1566.357422"/>
     </g>
    </g>
   </g>
   <g id="matplotlib.axis_2">
    <g id="ytick_1">
     <g id="line2d_7">
      <path d="M 31.198281 143.711399 
L 240.482361 143.711399 
" clip-path="url(#pc913fec286)" style="fill: none; stroke: #e0e0e0; stroke-width: 0.5; stroke-linecap: square"/>
     </g>
     <g id="line2d_8">
      <defs>
       <path id="mcce43796f2" d="M 0 0 
L -3.5 0 
" style="stroke: #000000; stroke-width: 0.7"/>
      </defs>
      <g>
       <use xlink:href="#mcce43796f2" x="31.198281" y="143.711399" style="stroke: #000000; stroke-width: 0.7"/>
      </g>
     </g>
     <g id="text_8">
      <!-- 0 -->
      <g transform="translate(19.426406 146.560813)scale(0.075 -0.075)">
       <use xlink:href="#DejaVuSerif-30"/>
      </g>
     </g>
    </g>
    <g id="ytick_2">
     <g id="line2d_9">
      <path d="M 31.198281 116.771147 
L 240.482361 116.771147 
" clip-path="url(#pc913fec286)" style="fill: none; stroke: #e0e0e0; stroke-width: 0.5; stroke-linecap: square"/>
     </g>
     <g id="line2d_10">
      <g>
       <use xlink:href="#mcce43796f2" x="31.198281" y="116.771147" style="stroke: #000000; stroke-width: 0.7"/>
      </g>
     </g>
     <g id="text_9">
      <!-- 1 -->
      <g transform="translate(19.426406 119.620561)scale(0.075 -0.075)">
       <use xlink:href="#DejaVuSerif-31"/>
      </g>
     </g>
    </g>
    <g id="ytick_3">
     <g id="line2d_11">
      <path d="M 31.198281 89.830895 
L 240.482361 89.830895 
" clip-path="url(#pc913fec286)" style="fill: none; stroke: #e0e0e0; stroke-width: 0.5; stroke-linecap: square"/>
     </g>
     <g id="line2d_12">
      <g>
       <use xlink:href="#mcce43796f2" x="31.198281" y="89.830895" style="stroke: #000000; stroke-width: 0.7"/>
      </g>
     </g>
     <g id="text_10">
      <!-- 2 -->
      <g transform="translate(19.426406 92.68031)scale(0.075 -0.075)">
       <use xlink:href="#DejaVuSerif-32"/>
      </g>
     </g>
    </g>
    <g id="ytick_4">
     <g id="line2d_13">
      <path d="M 31.198281 62.890644 
L 240.482361 62.890644 
" clip-path="url(#pc913fec286)" style="fill: none; stroke: #e0e0e0; stroke-width: 0.5; stroke-linecap: square"/>
     </g>
     <g id="line2d_14">
      <g>
       <use xlink:href="#mcce43796f2" x="31.198281" y="62.890644" style="stroke: #000000; stroke-width: 0.7"/>
      </g>
     </g>
     <g id="text_11">
      <!-- 3 -->
      <g transform="translate(19.426406 65.740058)scale(0.075 -0.075)">
       <defs>
        <path id="DejaVuSerif-33" d="M 622 4469 
Q 988 4606 1323 4678 
Q 1659 4750 1953 4750 
Q 2638 4750 3022 4454 
Q 3406 4159 3406 3634 
Q 3406 3213 3140 2930 
Q 2875 2647 2388 2547 
Q 2963 2466 3280 2130 
Q 3597 1794 3597 1259 
Q 3597 606 3158 257 
Q 2719 -91 1894 -91 
Q 1528 -91 1179 -12 
Q 831 66 488 225 
L 488 1131 
L 838 1131 
Q 869 681 1141 450 
Q 1413 219 1906 219 
Q 2384 219 2661 495 
Q 2938 772 2938 1253 
Q 2938 1803 2653 2086 
Q 2369 2369 1819 2369 
L 1522 2369 
L 1522 2688 
L 1678 2688 
Q 2225 2688 2498 2914 
Q 2772 3141 2772 3597 
Q 2772 4006 2547 4223 
Q 2322 4441 1900 4441 
Q 1478 4441 1245 4241 
Q 1013 4041 972 3647 
L 622 3647 
L 622 4469 
z
" transform="scale(0.015625)"/>
       </defs>
       <use xlink:href="#DejaVuSerif-33"/>
      </g>
     </g>
    </g>
    <g id="ytick_5">
     <g id="line2d_15">
      <path d="M 31.198281 35.950392 
L 240.482361 35.950392 
" clip-path="url(#pc913fec286)" style="fill: none; stroke: #e0e0e0; stroke-width: 0.5; stroke-linecap: square"/>
     </g>
     <g id="line2d_16">
      <g>
       <use xlink:href="#mcce43796f2" x="31.198281" y="35.950392" style="stroke: #000000; stroke-width: 0.7"/>
      </g>
     </g>
     <g id="text_12">
      <!-- 4 -->
      <g transform="translate(19.426406 38.799806)scale(0.075 -0.075)">
       <use xlink:href="#DejaVuSerif-34"/>
      </g>
     </g>
    </g>
    <g id="text_13">
     <!-- Density -->
     <g transform="translate(13.537813 100.948047)rotate(-90)scale(0.085 -0.085)">
      <defs>
       <path id="DejaVuSerif-44" d="M 1581 331 
L 2163 331 
Q 3072 331 3558 850 
Q 4044 1369 4044 2338 
Q 4044 3306 3559 3818 
Q 3075 4331 2163 4331 
L 1581 4331 
L 1581 331 
z
M 353 0 
L 353 331 
L 947 331 
L 947 4331 
L 353 4331 
L 353 4666 
L 2209 4666 
Q 3416 4666 4089 4050 
Q 4763 3434 4763 2338 
Q 4763 1238 4088 619 
Q 3413 0 2209 0 
L 353 0 
z
" transform="scale(0.015625)"/>
       <path id="DejaVuSerif-6e" d="M 263 0 
L 263 331 
L 781 331 
L 781 2988 
L 231 2988 
L 231 3322 
L 1356 3322 
L 1356 2731 
Q 1516 3069 1770 3241 
Q 2025 3413 2363 3413 
Q 2913 3413 3172 3097 
Q 3431 2781 3431 2113 
L 3431 331 
L 3944 331 
L 3944 0 
L 2356 0 
L 2356 331 
L 2853 331 
L 2853 1931 
Q 2853 2541 2703 2767 
Q 2553 2994 2175 2994 
Q 1775 2994 1565 2701 
Q 1356 2409 1356 1850 
L 1356 331 
L 1856 331 
L 1856 0 
L 263 0 
z
" transform="scale(0.015625)"/>
       <path id="DejaVuSerif-73" d="M 359 184 
L 359 959 
L 691 959 
Q 703 588 923 403 
Q 1144 219 1575 219 
Q 1963 219 2166 364 
Q 2369 509 2369 788 
Q 2369 1006 2220 1140 
Q 2072 1275 1594 1428 
L 1178 1569 
Q 750 1706 558 1912 
Q 366 2119 366 2438 
Q 366 2894 700 3153 
Q 1034 3413 1625 3413 
Q 1888 3413 2178 3344 
Q 2469 3275 2778 3144 
L 2778 2419 
L 2447 2419 
Q 2434 2741 2221 2922 
Q 2009 3103 1644 3103 
Q 1281 3103 1095 2975 
Q 909 2847 909 2591 
Q 909 2381 1050 2254 
Q 1191 2128 1613 1997 
L 2069 1856 
Q 2541 1709 2748 1489 
Q 2956 1269 2956 922 
Q 2956 450 2595 179 
Q 2234 -91 1600 -91 
Q 1278 -91 972 -22 
Q 666 47 359 184 
z
" transform="scale(0.015625)"/>
       <path id="DejaVuSerif-79" d="M 1381 -609 
L 1600 -56 
L 359 2988 
L -19 2988 
L -19 3322 
L 1509 3322 
L 1509 2988 
L 978 2988 
L 1913 703 
L 2847 2988 
L 2350 2988 
L 2350 3322 
L 3597 3322 
L 3597 2988 
L 3225 2988 
L 1703 -750 
Q 1547 -1138 1356 -1280 
Q 1166 -1422 819 -1422 
Q 672 -1422 517 -1397 
Q 363 -1372 206 -1325 
L 206 -691 
L 500 -691 
Q 519 -903 608 -995 
Q 697 -1088 884 -1088 
Q 1056 -1088 1161 -992 
Q 1266 -897 1381 -609 
z
" transform="scale(0.015625)"/>
      </defs>
      <use xlink:href="#DejaVuSerif-44"/>
      <use xlink:href="#DejaVuSerif-65" x="80.175781"/>
      <use xlink:href="#DejaVuSerif-6e" x="139.355469"/>
      <use xlink:href="#DejaVuSerif-73" x="203.759766"/>
      <use xlink:href="#DejaVuSerif-69" x="255.078125"/>
      <use xlink:href="#DejaVuSerif-74" x="287.060547"/>
      <use xlink:href="#DejaVuSerif-79" x="327.246094"/>
     </g>
    </g>
   </g>
   <g id="line2d_17">
    <path d="M 31.198281 118.154135 
L 33.814332 116.678692 
L 35.907173 115.733706 
L 38.000014 115.008701 
L 40.092855 114.504726 
L 42.185695 114.214873 
L 44.278536 114.125165 
L 46.894587 114.263921 
L 49.510638 114.636574 
L 52.649899 115.317564 
L 56.835581 116.47127 
L 68.346205 119.768409 
L 73.055097 120.814183 
L 77.240779 121.530322 
L 81.949671 122.094535 
L 86.658562 122.419889 
L 91.890664 122.544637 
L 99.215607 122.456513 
L 108.633391 122.360252 
L 113.865493 122.524278 
L 119.097595 122.908926 
L 124.852907 123.566142 
L 133.74748 124.858902 
L 142.118844 126.006444 
L 147.350946 126.49523 
L 151.536627 126.683369 
L 155.722309 126.651606 
L 159.90799 126.376361 
L 163.570462 125.927298 
L 167.756143 125.176594 
L 171.941825 124.179505 
L 176.127507 122.941493 
L 180.313188 121.454126 
L 183.97566 119.921697 
L 187.638131 118.129069 
L 190.777392 116.341844 
L 193.916653 114.283799 
L 197.055915 111.928509 
L 200.195176 109.274652 
L 203.857647 105.85558 
L 213.275431 96.803106 
L 215.368272 95.134913 
L 217.461112 93.749381 
L 219.030743 92.939737 
L 220.600374 92.358229 
L 222.170004 92.029361 
L 223.739635 91.973068 
L 225.309265 92.203832 
L 226.878896 92.729986 
L 228.448527 93.553246 
L 230.018157 94.668498 
L 231.587788 96.063854 
L 233.157418 97.720977 
L 235.250259 100.295076 
L 237.3431 103.219967 
L 239.959151 107.242725 
L 240.482361 108.082202 
L 240.482361 108.082202 
" clip-path="url(#pc913fec286)" style="fill: none; stroke: #0072b2; stroke-width: 1.55; stroke-linecap: square"/>
   </g>
   <g id="line2d_18">
    <path d="M 31.198281 143.569263 
L 36.953593 143.311102 
L 41.662485 142.892154 
L 45.848167 142.307361 
L 50.557059 141.402824 
L 64.160524 138.550626 
L 67.299785 138.256717 
L 70.439046 138.215432 
L 73.578307 138.430606 
L 76.717569 138.871287 
L 80.90325 139.706146 
L 92.413875 142.166206 
L 96.599556 142.778116 
L 101.308448 143.229953 
L 106.54055 143.489982 
L 112.295862 143.549431 
L 117.527964 143.385919 
L 121.713646 143.022955 
L 124.852907 142.541925 
L 127.992168 141.819263 
L 130.608219 140.997016 
L 133.22427 139.958252 
L 136.363531 138.434948 
L 140.026003 136.353713 
L 148.920576 131.119034 
L 151.536627 129.871908 
L 154.152678 128.845152 
L 157.291939 127.888154 
L 160.954411 127.032501 
L 166.709723 125.700595 
L 169.325774 124.867141 
L 171.941825 123.773145 
L 174.034666 122.662985 
L 176.127507 121.308664 
L 178.220347 119.679169 
L 180.313188 117.74405 
L 182.406029 115.473665 
L 184.49887 112.840576 
L 186.591711 109.821762 
L 188.684551 106.400987 
L 190.777392 102.570629 
L 192.870233 98.332419 
L 195.486284 92.478034 
L 198.102335 86.040707 
L 201.241596 77.622697 
L 204.904068 67.019234 
L 213.798641 40.600649 
L 215.891482 35.289417 
L 217.461112 31.86647 
L 219.030743 29.066015 
L 220.077163 27.607469 
L 221.123584 26.517118 
L 222.170004 25.827219 
L 223.216425 25.565945 
L 223.739635 25.603473 
L 224.262845 25.756355 
L 225.309265 26.415485 
L 226.355686 27.553568 
L 227.402106 29.173439 
L 228.448527 31.270152 
L 229.494947 33.830832 
L 231.064578 38.494425 
L 232.634208 44.052686 
L 234.203839 50.371781 
L 236.29668 59.701982 
L 239.959151 77.317948 
L 240.482361 79.860056 
L 240.482361 79.860056 
" clip-path="url(#pc913fec286)" style="fill: none; stroke: #d55e00; stroke-width: 1.55; stroke-linecap: square"/>
   </g>
   <g id="line2d_19">
    <path d="M 159.165032 149.618672 
L 159.165032 19.658672 
" clip-path="url(#pc913fec286)" style="fill: none; stroke-dasharray: 3.145,1.36; stroke-dashoffset: 0; stroke: #0072b2; stroke-opacity: 0.75; stroke-width: 0.85"/>
   </g>
   <g id="line2d_20">
    <path d="M 221.939792 149.618672 
L 221.939792 19.658672 
" clip-path="url(#pc913fec286)" style="fill: none; stroke-dasharray: 3.145,1.36; stroke-dashoffset: 0; stroke: #d55e00; stroke-opacity: 0.75; stroke-width: 0.85"/>
   </g>
   <g id="patch_3">
    <path d="M 31.198281 149.618672 
L 31.198281 19.658672 
" style="fill: none; stroke: #000000; stroke-width: 0.7; stroke-linejoin: miter; stroke-linecap: square"/>
   </g>
   <g id="patch_4">
    <path d="M 31.198281 149.618672 
L 240.482361 149.618672 
" style="fill: none; stroke: #000000; stroke-width: 0.7; stroke-linejoin: miter; stroke-linecap: square"/>
   </g>
   <g id="text_14">
    <!-- median -->
    <g style="fill: #0072b2" transform="translate(130.590583 38.902429)scale(0.068 -0.068)">
     <use xlink:href="#DejaVuSerif-6d"/>
     <use xlink:href="#DejaVuSerif-65" x="94.824219"/>
     <use xlink:href="#DejaVuSerif-64" x="154.003906"/>
     <use xlink:href="#DejaVuSerif-69" x="218.017578"/>
     <use xlink:href="#DejaVuSerif-61" x="250"/>
     <use xlink:href="#DejaVuSerif-6e" x="309.619141"/>
    </g>
   </g>
   <g id="text_15">
    <!-- median -->
    <g style="fill: #d55e00" transform="translate(225.079053 38.902429)scale(0.068 -0.068)">
     <use xlink:href="#DejaVuSerif-6d"/>
     <use xlink:href="#DejaVuSerif-65" x="94.824219"/>
     <use xlink:href="#DejaVuSerif-64" x="154.003906"/>
     <use xlink:href="#DejaVuSerif-69" x="218.017578"/>
     <use xlink:href="#DejaVuSerif-61" x="250"/>
     <use xlink:href="#DejaVuSerif-6e" x="309.619141"/>
    </g>
   </g>
   <g id="text_16">
    <!-- Power distribution in high-wind and normal weather -->
    <g transform="translate(22.658173 13.658672)scale(0.085 -0.085)">
     <defs>
      <path id="DejaVuSerif-50" d="M 1581 2375 
L 2406 2375 
Q 2872 2375 3115 2626 
Q 3359 2878 3359 3353 
Q 3359 3831 3115 4081 
Q 2872 4331 2406 4331 
L 1581 4331 
L 1581 2375 
z
M 353 0 
L 353 331 
L 947 331 
L 947 4331 
L 353 4331 
L 353 4666 
L 2559 4666 
Q 3259 4666 3668 4311 
Q 4078 3956 4078 3353 
Q 4078 2753 3668 2397 
Q 3259 2041 2559 2041 
L 1581 2041 
L 1581 331 
L 2303 331 
L 2303 0 
L 353 0 
z
" transform="scale(0.015625)"/>
      <path id="DejaVuSerif-62" d="M 738 331 
L 738 4531 
L 184 4531 
L 184 4863 
L 1313 4863 
L 1313 2803 
Q 1481 3116 1742 3264 
Q 2003 3413 2388 3413 
Q 3000 3413 3387 2928 
Q 3775 2444 3775 1663 
Q 3775 881 3387 395 
Q 3000 -91 2388 -91 
Q 2003 -91 1742 57 
Q 1481 206 1313 519 
L 1313 0 
L 184 0 
L 184 331 
L 738 331 
z
M 1313 1497 
Q 1313 897 1542 583 
Q 1772 269 2209 269 
Q 2650 269 2876 622 
Q 3103 975 3103 1663 
Q 3103 2353 2876 2703 
Q 2650 3053 2209 3053 
Q 1772 3053 1542 2737 
Q 1313 2422 1313 1825 
L 1313 1497 
z
" transform="scale(0.015625)"/>
      <path id="DejaVuSerif-68" d="M 263 0 
L 263 331 
L 781 331 
L 781 4531 
L 231 4531 
L 231 4863 
L 1356 4863 
L 1356 2731 
Q 1516 3069 1770 3241 
Q 2025 3413 2363 3413 
Q 2913 3413 3172 3097 
Q 3431 2781 3431 2113 
L 3431 331 
L 3944 331 
L 3944 0 
L 2356 0 
L 2356 331 
L 2853 331 
L 2853 1931 
Q 2853 2541 2704 2764 
Q 2556 2988 2175 2988 
Q 1775 2988 1565 2697 
Q 1356 2406 1356 1850 
L 1356 331 
L 1856 331 
L 1856 0 
L 263 0 
z
" transform="scale(0.015625)"/>
      <path id="DejaVuSerif-67" d="M 3359 2988 
L 3359 72 
Q 3359 -644 2965 -1033 
Q 2572 -1422 1844 -1422 
Q 1516 -1422 1216 -1362 
Q 916 -1303 641 -1184 
L 641 -488 
L 941 -488 
Q 997 -813 1206 -963 
Q 1416 -1113 1806 -1113 
Q 2313 -1113 2548 -827 
Q 2784 -541 2784 72 
L 2784 519 
Q 2616 206 2355 57 
Q 2094 -91 1709 -91 
Q 1097 -91 708 395 
Q 319 881 319 1663 
Q 319 2444 706 2928 
Q 1094 3413 1709 3413 
Q 2094 3413 2355 3264 
Q 2616 3116 2784 2803 
L 2784 3322 
L 3909 3322 
L 3909 2988 
L 3359 2988 
z
M 2784 1825 
Q 2784 2422 2554 2737 
Q 2325 3053 1888 3053 
Q 1444 3053 1217 2703 
Q 991 2353 991 1663 
Q 991 975 1217 622 
Q 1444 269 1888 269 
Q 2325 269 2554 583 
Q 2784 897 2784 1497 
L 2784 1825 
z
" transform="scale(0.015625)"/>
      <path id="DejaVuSerif-2d" d="M 281 1959 
L 1881 1959 
L 1881 1472 
L 281 1472 
L 281 1959 
z
" transform="scale(0.015625)"/>
     </defs>
     <use xlink:href="#DejaVuSerif-50"/>
     <use xlink:href="#DejaVuSerif-6f" x="63.285156"/>
     <use xlink:href="#DejaVuSerif-77" x="123.490234"/>
     <use xlink:href="#DejaVuSerif-65" x="209.085938"/>
     <use xlink:href="#DejaVuSerif-72" x="268.265625"/>
     <use xlink:href="#DejaVuSerif-20" x="316.068359"/>
     <use xlink:href="#DejaVuSerif-64" x="347.855469"/>
     <use xlink:href="#DejaVuSerif-69" x="411.869141"/>
     <use xlink:href="#DejaVuSerif-73" x="443.851562"/>
     <use xlink:href="#DejaVuSerif-74" x="495.169922"/>
     <use xlink:href="#DejaVuSerif-72" x="535.355469"/>
     <use xlink:href="#DejaVuSerif-69" x="583.158203"/>
     <use xlink:href="#DejaVuSerif-62" x="615.140625"/>
     <use xlink:href="#DejaVuSerif-75" x="679.154297"/>
     <use xlink:href="#DejaVuSerif-74" x="743.558594"/>
     <use xlink:href="#DejaVuSerif-69" x="783.744141"/>
     <use xlink:href="#DejaVuSerif-6f" x="815.726562"/>
     <use xlink:href="#DejaVuSerif-6e" x="875.931641"/>
     <use xlink:href="#DejaVuSerif-20" x="940.335938"/>
     <use xlink:href="#DejaVuSerif-69" x="972.123047"/>
     <use xlink:href="#DejaVuSerif-6e" x="1004.105469"/>
     <use xlink:href="#DejaVuSerif-20" x="1068.509766"/>
     <use xlink:href="#DejaVuSerif-68" x="1100.296875"/>
     <use xlink:href="#DejaVuSerif-69" x="1164.701172"/>
     <use xlink:href="#DejaVuSerif-67" x="1196.683594"/>
     <use xlink:href="#DejaVuSerif-68" x="1260.697266"/>
     <use xlink:href="#DejaVuSerif-2d" x="1325.101562"/>
     <use xlink:href="#DejaVuSerif-77" x="1358.890625"/>
     <use xlink:href="#DejaVuSerif-69" x="1444.486328"/>
     <use xlink:href="#DejaVuSerif-6e" x="1476.46875"/>
     <use xlink:href="#DejaVuSerif-64" x="1540.873047"/>
     <use xlink:href="#DejaVuSerif-20" x="1604.886719"/>
     <use xlink:href="#DejaVuSerif-61" x="1636.673828"/>
     <use xlink:href="#DejaVuSerif-6e" x="1696.292969"/>
     <use xlink:href="#DejaVuSerif-64" x="1760.697266"/>
     <use xlink:href="#DejaVuSerif-20" x="1824.710938"/>
     <use xlink:href="#DejaVuSerif-6e" x="1856.498047"/>
     <use xlink:href="#DejaVuSerif-6f" x="1920.902344"/>
     <use xlink:href="#DejaVuSerif-72" x="1981.107422"/>
     <use xlink:href="#DejaVuSerif-6d" x="2028.910156"/>
     <use xlink:href="#DejaVuSerif-61" x="2123.734375"/>
     <use xlink:href="#DejaVuSerif-6c" x="2183.353516"/>
     <use xlink:href="#DejaVuSerif-20" x="2215.335938"/>
     <use xlink:href="#DejaVuSerif-77" x="2247.123047"/>
     <use xlink:href="#DejaVuSerif-65" x="2332.71875"/>
     <use xlink:href="#DejaVuSerif-61" x="2391.898438"/>
     <use xlink:href="#DejaVuSerif-74" x="2451.517578"/>
     <use xlink:href="#DejaVuSerif-68" x="2491.703125"/>
     <use xlink:href="#DejaVuSerif-65" x="2556.107422"/>
     <use xlink:href="#DejaVuSerif-72" x="2615.287109"/>
    </g>
   </g>
   <g id="legend_1">
    <g id="line2d_21">
     <path d="M 37.678281 29.089547 
L 44.878281 29.089547 
L 52.078281 29.089547 
" style="fill: none; stroke: #0072b2; stroke-width: 1.55; stroke-linecap: square"/>
    </g>
    <g id="text_17">
     <!-- Normal weather (n=1346) -->
     <g transform="translate(57.838281 31.609547)scale(0.072 -0.072)">
      <defs>
       <path id="DejaVuSerif-3d" d="M 678 2894 
L 4684 2894 
L 4684 2394 
L 678 2394 
L 678 2894 
z
M 678 1619 
L 4684 1619 
L 4684 1119 
L 678 1119 
L 678 1619 
z
" transform="scale(0.015625)"/>
      </defs>
      <use xlink:href="#DejaVuSerif-4e"/>
      <use xlink:href="#DejaVuSerif-6f" x="87.5"/>
      <use xlink:href="#DejaVuSerif-72" x="147.705078"/>
      <use xlink:href="#DejaVuSerif-6d" x="195.507812"/>
      <use xlink:href="#DejaVuSerif-61" x="290.332031"/>
      <use xlink:href="#DejaVuSerif-6c" x="349.951172"/>
      <use xlink:href="#DejaVuSerif-20" x="381.933594"/>
      <use xlink:href="#DejaVuSerif-77" x="413.720703"/>
      <use xlink:href="#DejaVuSerif-65" x="499.316406"/>
      <use xlink:href="#DejaVuSerif-61" x="558.496094"/>
      <use xlink:href="#DejaVuSerif-74" x="618.115234"/>
      <use xlink:href="#DejaVuSerif-68" x="658.300781"/>
      <use xlink:href="#DejaVuSerif-65" x="722.705078"/>
      <use xlink:href="#DejaVuSerif-72" x="781.884766"/>
      <use xlink:href="#DejaVuSerif-20" x="829.6875"/>
      <use xlink:href="#DejaVuSerif-28" x="861.474609"/>
      <use xlink:href="#DejaVuSerif-6e" x="900.488281"/>
      <use xlink:href="#DejaVuSerif-3d" x="964.892578"/>
      <use xlink:href="#DejaVuSerif-31" x="1048.681641"/>
      <use xlink:href="#DejaVuSerif-33" x="1112.304688"/>
      <use xlink:href="#DejaVuSerif-34" x="1175.927734"/>
      <use xlink:href="#DejaVuSerif-36" x="1239.550781"/>
      <use xlink:href="#DejaVuSerif-29" x="1303.173828"/>
     </g>
    </g>
    <g id="line2d_22">
     <path d="M 37.678281 39.657797 
L 44.878281 39.657797 
L 52.078281 39.657797 
" style="fill: none; stroke: #d55e00; stroke-width: 1.55; stroke-linecap: square"/>
    </g>
    <g id="text_18">
     <!-- High wind (n=94) -->
     <g transform="translate(57.838281 42.177797)scale(0.072 -0.072)">
      <defs>
       <path id="DejaVuSerif-48" d="M 353 0 
L 353 331 
L 947 331 
L 947 4331 
L 353 4331 
L 353 4666 
L 2175 4666 
L 2175 4331 
L 1581 4331 
L 1581 2719 
L 4000 2719 
L 4000 4331 
L 3406 4331 
L 3406 4666 
L 5228 4666 
L 5228 4331 
L 4634 4331 
L 4634 331 
L 5228 331 
L 5228 0 
L 3406 0 
L 3406 331 
L 4000 331 
L 4000 2338 
L 1581 2338 
L 1581 331 
L 2175 331 
L 2175 0 
L 353 0 
z
" transform="scale(0.015625)"/>
       <path id="DejaVuSerif-39" d="M 2994 2091 
Q 2784 1856 2512 1740 
Q 2241 1625 1900 1625 
Q 1206 1625 804 2044 
Q 403 2463 403 3188 
Q 403 3897 839 4323 
Q 1275 4750 2003 4750 
Q 2794 4750 3217 4161 
Q 3641 3572 3641 2478 
Q 3641 1253 3137 581 
Q 2634 -91 1722 -91 
Q 1475 -91 1203 -44 
Q 931 3 647 97 
L 647 872 
L 997 872 
Q 1038 556 1241 387 
Q 1444 219 1784 219 
Q 2391 219 2687 676 
Q 2984 1134 2994 2091 
z
M 1978 4441 
Q 1534 4441 1298 4117 
Q 1063 3794 1063 3188 
Q 1063 2581 1298 2256 
Q 1534 1931 1978 1931 
Q 2422 1931 2658 2245 
Q 2894 2559 2894 3150 
Q 2894 3772 2656 4106 
Q 2419 4441 1978 4441 
z
" transform="scale(0.015625)"/>
      </defs>
      <use xlink:href="#DejaVuSerif-48"/>
      <use xlink:href="#DejaVuSerif-69" x="87.207031"/>
      <use xlink:href="#DejaVuSerif-67" x="119.189453"/>
      <use xlink:href="#DejaVuSerif-68" x="183.203125"/>
      <use xlink:href="#DejaVuSerif-20" x="247.607422"/>
      <use xlink:href="#DejaVuSerif-77" x="279.394531"/>
      <use xlink:href="#DejaVuSerif-69" x="364.990234"/>
      <use xlink:href="#DejaVuSerif-6e" x="396.972656"/>
      <use xlink:href="#DejaVuSerif-64" x="461.376953"/>
      <use xlink:href="#DejaVuSerif-20" x="525.390625"/>
      <use xlink:href="#DejaVuSerif-28" x="557.177734"/>
      <use xlink:href="#DejaVuSerif-6e" x="596.191406"/>
      <use xlink:href="#DejaVuSerif-3d" x="660.595703"/>
      <use xlink:href="#DejaVuSerif-39" x="744.384766"/>
      <use xlink:href="#DejaVuSerif-34" x="808.007812"/>
      <use xlink:href="#DejaVuSerif-29" x="871.630859"/>
     </g>
    </g>
   </g>
  </g>
 </g>
 <defs>
  <clipPath id="pc913fec286">
   <rect x="31.198281" y="19.658672" width="209.28408" height="129.96"/>
  </clipPath>
 </defs>
</svg>
